<svg width="231" height="229" viewBox="0 0 231 229" fill="none" xmlns="http://www.w3.org/2000/svg">
<path fill-rule="evenodd" clip-rule="evenodd" d="M114.103 228.707C76.5182 228.74 44.2592 228.68 42.4166 228.573C40.5741 228.465 38.9562 228.267 38.8212 228.132C38.6613 227.972 38.662 227.834 38.8234 227.734C38.9595 227.65 40.1824 227.465 41.5411 227.323C42.8997 227.181 46.7197 226.958 50.0299 226.827C53.3402 226.696 60.9011 226.466 66.8319 226.315C72.7628 226.165 77.7457 226 77.9051 225.95C78.0645 225.899 78.2767 225.486 78.3767 225.031C78.4946 224.494 79.0617 223.718 79.9924 222.819C80.7858 222.054 83.2728 220.289 85.5602 218.869C88.3524 217.135 89.8077 216.077 90.0441 215.609C90.2992 215.103 90.4175 213.539 90.4807 209.837L90.5673 204.759H88.9495C87.9502 204.759 87.24 204.639 87.092 204.445C86.9603 204.273 86.6168 203.286 86.3288 202.251C86.0408 201.217 85.6817 199.637 85.5308 198.74C85.3798 197.844 84.9815 194.851 84.6455 192.089C84.3096 189.327 83.7473 183.798 83.3959 179.801C83.0446 175.804 82.6377 171.18 82.4916 169.525C82.3455 167.87 82.1204 165.613 81.9913 164.509C81.8622 163.406 81.4736 159.018 81.1279 154.758C80.7821 150.498 80.4932 146.04 80.4858 144.852L80.4723 142.692L79.0426 141.994C78.2563 141.61 76.7251 141.074 75.6398 140.803C74.5546 140.532 72.9987 140.01 72.1823 139.644C71.366 139.277 70.4086 138.634 70.055 138.213C69.4372 137.479 69.4165 137.35 69.5286 134.93C69.6077 133.22 69.8552 131.713 70.2985 130.243C70.6578 129.051 71.6468 126.455 72.4963 124.475C73.3458 122.495 74.4798 119.999 75.0163 118.93C75.5528 117.86 76.4394 116.254 76.9866 115.36L77.9814 113.735L77.2054 113.334C76.7786 113.113 75.9232 112.466 75.3044 111.895C74.6856 111.325 72.458 108.711 70.3543 106.086C68.2506 103.461 65.9428 100.439 65.226 99.3705C64.5092 98.3017 63.7591 97.0358 63.5592 96.5573C63.3592 96.0788 63.1982 95.2041 63.2012 94.6135C63.2042 94.0228 63.4235 93.062 63.6885 92.4783C63.9534 91.8946 64.7855 90.6533 65.5375 89.7198C66.2894 88.7863 68.6939 86.2711 70.8807 84.1304C73.0676 81.9898 75.5339 79.6298 76.3614 78.886C77.189 78.1422 79.2152 76.2824 80.8642 74.7532C82.5132 73.224 84.4813 71.3936 85.2378 70.6857L86.6133 69.3986L85.4998 68.8358C84.8874 68.5263 83.6225 67.8219 82.689 67.2704C81.7555 66.719 80.9338 66.174 80.8629 66.0593C80.792 65.9446 80.9058 65.1099 81.1158 64.2044C81.3258 63.2989 81.7373 62.0808 82.0302 61.4976C82.3231 60.9143 82.8434 60.063 83.1864 59.6056C83.5294 59.1483 83.7442 58.7084 83.6638 58.628C83.5834 58.5476 83.0608 58.7984 82.5025 59.1853C81.9442 59.5722 81.1072 60.4071 80.6425 61.0407C80.1778 61.6742 79.596 62.6157 79.3496 63.133C79.1033 63.6502 78.8222 64.0734 78.725 64.0734C78.6277 64.0734 77.8869 63.5808 77.0787 62.9787C76.2704 62.3767 75.3048 61.5585 74.9328 61.1606C74.5608 60.7627 74.0812 60.0176 73.867 59.5048C73.6528 58.992 73.4775 58.054 73.4775 57.4203C73.4775 56.7074 73.7201 55.7553 74.1141 54.9226C74.501 54.1048 75.3184 53.0533 76.1978 52.2423C76.9936 51.5082 79.2048 49.7795 81.1114 48.4007C83.018 47.0219 85.0293 45.3856 85.581 44.7644C86.1326 44.1433 86.7384 43.272 86.9271 42.8281C87.1158 42.3843 87.2702 41.4567 87.2702 40.7667C87.2702 39.6544 87.1822 39.4476 86.4934 38.9406C86.0661 38.6261 85.4574 37.9174 85.1406 37.3657C84.8238 36.814 84.4906 35.7335 84.4002 34.9647C84.2943 34.0643 84.3723 32.9124 84.6192 31.7282C84.83 30.717 85.3478 29.1518 85.7697 28.2502C86.1917 27.3485 86.9558 26.0992 87.4678 25.474C87.9798 24.8487 88.8367 23.9395 89.372 23.4535C89.9073 22.9675 91.1136 22.1081 92.0528 21.5437C92.992 20.9794 94.5289 20.2773 95.4681 19.9837C96.4074 19.69 98.0223 19.3193 99.0567 19.1598C100.172 18.9879 102.031 18.9312 103.622 19.0206C105.554 19.1291 106.886 19.3628 108.371 19.8535C109.506 20.2287 110.796 20.8529 111.238 21.2408C111.68 21.6287 112.223 22.3291 112.445 22.7974C112.668 23.2657 112.849 24.1113 112.849 24.6767C112.849 25.242 112.911 25.7046 112.985 25.7046C113.06 25.7046 113.363 25.4789 113.66 25.203C114.015 24.8721 114.544 24.7015 115.216 24.7017C115.817 24.7018 116.852 24.9952 117.74 25.4173C118.653 25.8515 119.718 26.6421 120.45 27.4284C121.113 28.1409 122.042 29.5398 122.514 30.5371C123.031 31.6311 123.467 33.0463 123.612 34.1056C123.745 35.0711 123.843 36.8769 123.83 38.1186C123.81 40.0925 123.893 40.5508 124.488 41.7656C124.862 42.5298 125.738 43.8273 126.435 44.649C127.133 45.4706 128.847 47.3697 130.245 48.8691C131.642 50.3685 133.379 52.5006 134.104 53.607C134.828 54.7135 135.647 56.348 135.922 57.2393C136.197 58.1306 136.422 59.3354 136.422 59.9165C136.422 60.4976 136.255 61.5363 136.051 62.2248C135.798 63.0751 135.24 63.9621 134.309 64.9907C133.402 65.9931 132.362 66.8055 131.232 67.3943C130.294 67.8835 128.879 68.485 128.088 68.731L126.649 69.1782L125.252 67.6916L123.855 66.205L123.974 67.3335C124.084 68.3761 124.307 68.6807 126.905 71.3355C128.451 72.916 131.356 76.0758 133.362 78.3573C135.367 80.6388 137.978 83.8032 139.164 85.3894C140.35 86.9755 142.005 89.4582 142.842 90.9065C143.679 92.3547 144.514 93.9191 144.698 94.3829C144.882 94.8467 145.02 95.7912 145.004 96.4817C144.984 97.364 144.793 98.0079 144.362 98.6477C144.024 99.1485 142.414 101.025 140.783 102.818C139.153 104.611 136.276 107.635 134.391 109.538L130.964 112.997L132.001 114.929C132.572 115.992 133.619 118.103 134.328 119.62C135.037 121.138 136.036 123.45 136.547 124.759C137.059 126.068 137.691 127.976 137.953 129C138.214 130.023 138.429 131.222 138.429 131.664C138.429 132.106 138.198 132.76 137.917 133.118C137.635 133.476 136.422 134.319 135.221 134.992C134.02 135.664 132.416 136.507 131.658 136.864C130.899 137.222 129.699 137.588 128.991 137.678L127.704 137.841L127.529 148.667C127.434 154.622 127.392 168.86 127.438 180.308C127.506 197.61 127.46 201.327 127.168 202.335C126.925 203.171 126.641 203.613 126.251 203.762C125.94 203.88 124.99 204.055 124.14 204.151L122.595 204.326L122.675 209.621C122.746 214.285 122.811 214.997 123.221 215.602C123.477 215.98 125.509 217.444 127.735 218.855C129.961 220.266 132.315 221.915 132.966 222.52C133.616 223.125 134.39 224.154 134.685 224.807L135.222 225.994L148.047 226.159C155.102 226.249 163.694 226.438 167.143 226.58C170.591 226.721 175.387 226.951 177.801 227.092C180.214 227.232 182.669 227.414 183.255 227.496C183.865 227.582 184.321 227.781 184.321 227.961C184.321 228.135 183.898 228.36 183.38 228.462C182.863 228.564 151.688 228.674 114.103 228.707ZM89.7153 225.446C97.7066 225.298 99.2286 225.212 99.4807 224.893C99.6449 224.685 99.8988 223.958 100.045 223.276C100.203 222.54 100.311 218.533 100.311 213.398V204.759H96.1728H92.035V209.683C92.035 212.771 91.9234 214.979 91.7358 215.605C91.5712 216.154 91.1288 216.911 90.7526 217.288C90.3765 217.664 88.2864 219.09 86.108 220.456C83.9296 221.822 81.72 223.346 81.1979 223.842C80.6757 224.338 80.2485 224.941 80.2485 225.182C80.2485 225.595 80.8027 225.61 89.7153 225.446ZM132.723 225.515C132.827 225.547 132.912 225.413 132.912 225.216C132.912 225.02 132.62 224.513 132.264 224.09C131.908 223.667 130.36 222.502 128.822 221.501C127.285 220.499 125.178 219.116 124.141 218.426C122.784 217.525 122.113 216.89 121.752 216.169C121.305 215.276 121.242 214.567 121.17 209.688L121.089 204.21L116.907 204.297L112.724 204.383V213.556V222.729L113.487 223.963L114.25 225.197L123.393 225.327C128.421 225.399 132.62 225.484 132.723 225.515ZM106.833 225.323C111.258 225.323 112.358 225.258 112.163 225.009C112.028 224.837 111.732 224.14 111.506 223.46C111.155 222.407 111.094 220.911 111.094 213.366V204.508H110.245C109.437 204.508 109.388 204.456 109.242 203.442C109.157 202.856 108.978 201.022 108.844 199.367C108.709 197.712 108.484 194.157 108.342 191.468C108.2 188.778 107.97 184.434 107.831 181.813C107.692 179.192 107.472 175.073 107.341 172.66C107.211 170.246 106.982 162.629 106.832 155.732C106.683 148.836 106.452 141.592 106.32 139.635C106.187 137.679 106.078 134.265 106.078 132.049V128.021H105.339H104.6L104.581 140.681C104.57 147.644 104.517 153.484 104.462 153.659C104.407 153.834 104.292 165.092 104.206 178.678C104.062 201.556 104.019 203.404 103.622 203.709C103.387 203.89 102.89 204.1 102.518 204.176L101.842 204.315L101.735 214.004C101.677 219.333 101.545 224.059 101.443 224.508L101.257 225.323H106.833ZM197.755 216.796C164.677 216.796 164.509 216.794 164.509 216.295C164.509 215.838 164.677 215.793 166.39 215.793H168.271V182.44V149.087L170.967 149.062C172.45 149.048 173.945 148.946 174.29 148.836C174.634 148.725 174.763 148.624 174.576 148.61C174.389 148.596 173.513 148.01 172.63 147.307C171.747 146.605 170.633 145.552 170.155 144.968C169.676 144.385 169.113 143.496 168.903 142.994C168.693 142.492 168.522 141.733 168.522 141.308C168.522 140.883 168.693 140.204 168.902 139.8C169.111 139.395 169.614 138.893 170.018 138.684C170.423 138.474 171.239 138.304 171.832 138.306C172.43 138.307 173.469 138.568 174.164 138.892C174.985 139.274 176.047 140.149 177.238 141.425C178.24 142.497 179.126 143.644 179.209 143.973C179.292 144.303 179.434 144.573 179.524 144.573C179.615 144.573 179.887 144.015 180.129 143.334C180.371 142.653 181.046 141.384 181.63 140.513C182.314 139.493 183.2 138.582 184.125 137.949C185.251 137.178 185.857 136.942 186.941 136.852C188.259 136.743 188.364 136.779 189.234 137.65C190.123 138.538 190.144 138.603 190.045 140.151C189.966 141.399 189.758 142.056 189.076 143.213C188.598 144.024 187.474 145.425 186.578 146.327C185.681 147.228 184.61 148.201 184.198 148.489L183.449 149.011L187.187 148.986C190.038 148.967 190.951 148.883 191.035 148.631C191.095 148.449 191.394 148.011 191.699 147.657C192.169 147.109 192.332 147.055 192.784 147.297C193.076 147.454 193.42 147.582 193.547 147.582C193.675 147.582 194.19 146.916 194.692 146.102C195.195 145.288 195.606 144.526 195.606 144.407C195.606 144.289 195.38 144.051 195.104 143.878C194.828 143.706 194.603 143.425 194.604 143.254C194.604 143.083 194.866 142.616 195.185 142.217C195.76 141.499 195.772 141.496 196.446 141.938C196.82 142.183 197.163 142.34 197.209 142.287C197.255 142.234 197.76 141.445 198.33 140.533C198.901 139.622 199.367 138.761 199.367 138.62C199.367 138.479 199.113 138.193 198.803 137.984L198.239 137.605L198.726 136.683C199.088 135.999 199.33 135.799 199.667 135.904C199.916 135.982 200.33 136.112 200.588 136.192C200.962 136.309 201.254 135.994 202.042 134.625L203.028 132.912L202.412 132.391L201.795 131.871L202.265 131.074C202.524 130.637 202.93 130.278 203.168 130.278C203.406 130.278 203.671 130.391 203.756 130.529C203.841 130.667 204.018 130.78 204.148 130.78C204.279 130.78 204.895 129.986 205.517 129.016L206.648 127.252L205.973 126.671L205.298 126.091L205.864 125.175C206.175 124.672 206.508 124.26 206.604 124.26C206.7 124.26 207.03 124.436 207.337 124.65C207.644 124.865 207.988 124.983 208.102 124.913C208.216 124.842 208.742 124.084 209.271 123.227L210.232 121.67L209.57 121.141L208.908 120.613L209.433 119.741C209.721 119.261 209.998 118.825 210.046 118.771C210.095 118.718 210.43 118.868 210.792 119.105C211.153 119.341 211.519 119.464 211.606 119.378C211.692 119.291 212.237 118.468 212.816 117.549L213.869 115.877L213.132 115.429C212.408 114.988 212.402 114.967 212.791 114.216C213.008 113.795 213.344 113.39 213.538 113.316C213.731 113.242 214.14 113.357 214.447 113.572C214.992 113.953 215.035 113.917 216.211 112.081L217.416 110.2L218.184 110.597C218.607 110.815 219.934 111.59 221.134 112.317C222.335 113.045 224.417 114.356 225.762 115.23C227.106 116.103 228.207 116.928 228.207 117.061C228.207 117.195 227.97 117.687 227.681 118.154L227.156 119.005L226.309 118.481L225.462 117.958L224.577 119.341C224.091 120.102 223.694 120.815 223.696 120.925C223.697 121.035 224.095 121.382 224.579 121.695C225.295 122.159 225.412 122.346 225.207 122.698C225.068 122.936 224.789 123.343 224.586 123.602C224.227 124.06 224.195 124.059 223.314 123.539C222.817 123.246 222.373 123.006 222.327 123.006C222.281 123.006 221.78 123.746 221.213 124.65C220.646 125.555 220.182 126.319 220.182 126.349C220.182 126.378 220.577 126.615 221.059 126.875C221.542 127.135 221.937 127.454 221.937 127.583C221.937 127.713 221.744 128.146 221.507 128.547C221.27 128.948 221.003 129.275 220.914 129.275C220.824 129.275 220.464 129.05 220.113 128.774C219.763 128.498 219.369 128.272 219.239 128.272C219.109 128.272 218.647 128.844 218.213 129.543C217.779 130.242 217.424 130.89 217.424 130.985C217.424 131.079 217.763 131.382 218.176 131.658C218.589 131.933 218.927 132.249 218.927 132.36C218.928 132.47 218.756 132.893 218.545 133.3C218.335 133.707 218.081 134.039 217.981 134.038C217.881 134.037 217.461 133.812 217.047 133.538C216.633 133.264 216.22 133.039 216.128 133.039C216.037 133.038 215.603 133.62 215.164 134.333L214.366 135.63L215.268 136.402L216.17 137.175L215.643 137.99C215.354 138.438 215.057 138.805 214.983 138.805C214.909 138.805 214.463 138.566 213.991 138.275C213.52 137.983 213.107 137.786 213.075 137.836C213.043 137.886 212.687 138.418 212.285 139.017C211.658 139.952 211.609 140.138 211.94 140.324C212.153 140.443 212.591 140.754 212.913 141.014L213.498 141.488L212.929 142.288L212.359 143.089L211.491 142.577C211.014 142.295 210.579 142.065 210.525 142.065C210.47 142.065 210.061 142.595 209.616 143.242L208.805 144.42L209.704 145.147C210.596 145.869 210.599 145.878 210.188 146.601C209.961 147.001 209.655 147.329 209.509 147.33C209.363 147.33 209.024 147.165 208.757 146.963C208.489 146.76 208.084 146.591 207.856 146.587C207.629 146.582 207.159 147.058 206.813 147.645C206.466 148.231 206.238 148.767 206.307 148.836C206.375 148.905 211.076 148.964 216.754 148.968L227.078 148.974L227.142 182.247L227.205 215.52L229.023 215.594C230.69 215.662 230.846 215.714 230.92 216.232L231 216.796H197.755ZM187.206 214.038H203.883L203.82 182.831L203.756 151.625L188.96 151.572C180.822 151.544 173.346 151.537 172.346 151.557L170.528 151.594V182.816V214.038H187.206ZM215.542 214.038H225.197V182.816V151.594L217.737 151.555C213.633 151.534 209.938 151.484 209.524 151.445C209.11 151.407 208.123 151.439 207.329 151.517L205.887 151.659V182.848V214.038H215.542ZM67.2361 211.681C66.7379 211.732 66.0955 211.674 65.8084 211.551C65.5213 211.427 64.9852 210.969 64.6172 210.531C64.135 209.958 63.948 209.454 63.948 208.728C63.948 208.174 64.1326 207.408 64.3582 207.026C64.5837 206.644 65.0808 206.147 65.4626 205.921C65.8445 205.696 66.6305 205.511 67.2092 205.511C68.0678 205.511 68.4155 205.665 69.0992 206.349C69.56 206.81 70.0136 207.492 70.1072 207.865C70.2117 208.281 70.1156 208.966 69.8582 209.64C69.6277 210.243 69.1472 210.928 68.7905 211.162C68.4337 211.396 67.7342 211.629 67.2361 211.681ZM140.55 211.097C140.067 211.191 139.423 211.081 138.794 210.795C138.248 210.547 137.604 210.001 137.363 209.582C137.121 209.163 136.924 208.442 136.925 207.98C136.925 207.519 137.146 206.78 137.415 206.338C137.685 205.897 138.243 205.361 138.656 205.147C139.069 204.934 139.746 204.759 140.16 204.759C140.574 204.759 141.174 204.878 141.493 205.024C141.813 205.169 142.326 205.656 142.634 206.105C142.967 206.592 143.193 207.3 143.193 207.859C143.193 208.374 143.03 209.112 142.83 209.499C142.63 209.885 142.207 210.369 141.89 210.575C141.572 210.78 140.969 211.015 140.55 211.097ZM34.0015 207C33.7139 206.991 33.253 206.892 32.9771 206.779C32.7013 206.666 32.2524 206.326 31.9797 206.022C31.6658 205.673 31.4838 205.114 31.4838 204.499C31.4838 203.919 31.6842 203.261 31.9797 202.868C32.2524 202.506 35.4661 200.396 39.1211 198.179C42.7762 195.961 47.8544 192.884 50.4061 191.339L55.0454 188.531L54.9621 187.031C54.9071 186.043 55.0184 185.197 55.2882 184.55C55.5135 184.01 56.0454 183.209 56.4703 182.77C56.8952 182.331 57.5817 181.832 57.9959 181.66C58.657 181.386 58.7908 181.405 59.0915 181.816C59.2799 182.074 59.4297 182.348 59.4244 182.425C59.4191 182.502 59.0565 182.791 58.6187 183.067C58.1809 183.343 57.5646 183.952 57.2491 184.42C56.8277 185.046 56.6755 185.632 56.6755 186.625C56.6755 187.472 56.8587 188.336 57.166 188.938C57.4358 189.467 58.0052 190.193 58.4313 190.552C58.8574 190.91 59.6761 191.33 60.2505 191.485C61.0365 191.697 61.5458 191.692 62.308 191.467C62.8652 191.303 63.6865 190.892 64.133 190.555C64.7895 190.06 65.0417 189.994 65.4496 190.212C65.7271 190.361 65.9542 190.638 65.9542 190.827C65.9542 191.017 65.5874 191.482 65.1392 191.86C64.6909 192.238 63.9417 192.707 63.4743 192.903C63.0069 193.099 62.0419 193.259 61.3299 193.259C60.6178 193.259 59.5655 193.071 58.9914 192.841C57.9929 192.442 57.9173 192.445 57.2489 192.917C56.8645 193.189 55.2523 194.198 53.6662 195.16C52.08 196.122 49.428 197.755 47.7729 198.789C46.1178 199.823 43.353 201.549 41.6289 202.625C39.9048 203.701 37.601 205.129 36.5093 205.798C35.4176 206.468 34.2891 207.009 34.0015 207ZM34.6516 204.662C35.0855 204.576 35.9153 204.14 36.4954 203.695C37.4815 202.938 37.5271 202.85 37.1946 202.342L36.8389 201.799L35.7857 202.4C35.2065 202.731 34.461 203.213 34.1291 203.472C33.7188 203.792 33.5796 204.083 33.6942 204.381C33.8252 204.723 34.0377 204.785 34.6516 204.662ZM39.5205 201.75C39.6738 201.75 40.1827 201.47 40.6514 201.128C41.1201 200.786 41.7856 200.368 42.1304 200.2C42.4753 200.031 42.8009 199.863 42.854 199.826C42.9072 199.789 42.7584 199.466 42.5233 199.107C42.1046 198.468 42.0823 198.463 41.4235 198.888C41.0537 199.126 40.4426 199.639 40.0654 200.027C39.6571 200.448 39.226 200.675 38.9996 200.588C38.7906 200.508 38.6196 200.512 38.6196 200.598C38.6196 200.683 38.7596 200.978 38.9307 201.251C39.1018 201.525 39.3672 201.75 39.5205 201.75ZM44.889 198.49C45.0269 198.49 45.3655 198.264 45.6413 197.988C45.9172 197.712 46.2275 197.484 46.331 197.481C46.4344 197.478 46.7862 197.27 47.1127 197.019C47.5516 196.681 47.6616 196.421 47.5347 196.021C47.4402 195.724 47.2634 195.48 47.1416 195.48C47.0199 195.48 46.2947 195.857 45.5301 196.318C44.7654 196.778 44.2237 197.239 44.3263 197.342C44.4289 197.444 44.5269 197.632 44.5442 197.758C44.5614 197.885 44.5896 198.101 44.6069 198.239C44.6241 198.377 44.7511 198.49 44.889 198.49ZM49.6514 195.48C49.7743 195.48 49.9447 195.367 50.0299 195.229C50.1152 195.092 49.9807 194.977 49.7312 194.975C49.3534 194.972 49.3394 194.932 49.6471 194.737C49.8798 194.59 50.0737 194.596 50.1707 194.753C50.2653 194.906 50.63 194.828 51.1161 194.551C51.5514 194.304 51.9065 193.988 51.9053 193.85C51.9041 193.712 51.8024 193.44 51.6793 193.246C51.4949 192.955 51.3241 192.947 50.7093 193.201C50.299 193.371 49.739 193.768 49.465 194.083C49.1101 194.492 49.0331 194.775 49.1974 195.068C49.3242 195.295 49.5285 195.48 49.6514 195.48ZM54.868 192.282C55.0462 192.214 55.1503 192.031 55.0994 191.876C55.0485 191.72 54.6487 191.558 54.2111 191.515C53.7537 191.469 53.4154 191.553 53.4154 191.711C53.4154 191.862 53.6693 192.08 53.9796 192.195C54.29 192.311 54.6897 192.35 54.868 192.282ZM61.6955 190.212C61.0724 190.212 60.2441 190.045 59.8549 189.842C59.4656 189.639 58.9312 189.216 58.6672 188.903C58.4032 188.59 58.062 187.934 57.909 187.445C57.709 186.807 57.7062 186.279 57.8993 185.565C58.047 185.018 58.5173 184.148 58.9445 183.631C59.3718 183.114 59.9332 182.691 60.1921 182.691C60.4511 182.691 60.7677 182.878 60.8956 183.106C61.0651 183.409 60.9324 183.831 60.4065 184.66C60.0096 185.286 59.6848 186.063 59.6848 186.387C59.6848 186.711 59.9618 187.254 60.3003 187.592C60.6666 187.958 61.206 188.208 61.6323 188.208C62.0264 188.208 62.6034 187.971 62.9146 187.681C63.2304 187.386 63.4175 186.989 63.3381 186.782C63.2598 186.578 63.1957 186.364 63.1957 186.306C63.1957 186.249 63.0385 186.202 62.8463 186.202C62.6542 186.202 62.432 186.371 62.3527 186.578C62.2733 186.785 61.9873 186.954 61.7173 186.954C61.4472 186.954 61.1829 186.756 61.13 186.515C61.0771 186.274 61.1371 185.763 61.2634 185.381C61.3897 184.999 61.6994 184.576 61.9517 184.441C62.204 184.306 62.7073 184.195 63.0703 184.195C63.4332 184.195 63.9473 184.311 64.2127 184.454C64.478 184.596 64.8656 185.041 65.0739 185.444C65.2822 185.847 65.4527 186.419 65.4527 186.715C65.4527 187.012 65.2673 187.645 65.0407 188.122C64.814 188.6 64.2236 189.266 63.7286 189.602C63.1013 190.029 62.4851 190.213 61.6955 190.212ZM187.25 188.709H173.596L173.46 188.02C173.386 187.64 173.408 187.244 173.509 187.14C173.61 187.035 179.779 186.979 187.219 187.014L200.747 187.079L200.825 187.894L200.904 188.709H187.25ZM24.3536 187.942C23.9951 188.134 23.7828 188.077 23.4381 187.696C23.0588 187.277 23.0376 187.109 23.3012 186.617C23.4728 186.296 24.1966 185.388 24.9096 184.599C26.1687 183.205 26.2224 183.175 26.7704 183.568C27.0807 183.791 27.3346 184.13 27.3346 184.322C27.3346 184.514 26.7689 185.351 26.0775 186.181C25.3861 187.012 24.6103 187.804 24.3536 187.942ZM20.5857 184.644C20.3635 184.684 20.0419 184.576 19.8711 184.406C19.7003 184.235 19.5606 183.936 19.5606 183.742C19.5606 183.548 20.1345 182.667 20.836 181.786C21.5376 180.904 22.3049 180.183 22.5413 180.183C22.7777 180.183 23.1065 180.318 23.2721 180.484C23.4376 180.649 23.573 180.97 23.573 181.197C23.573 181.424 22.9918 182.276 22.2814 183.09C21.571 183.905 20.808 184.604 20.5857 184.644ZM157.068 184.098C156.59 184.226 156.415 184.014 155.665 182.401C155.194 181.388 154.335 179.965 153.758 179.24C153.18 178.515 152.062 177.404 151.273 176.772C150.484 176.14 149.162 175.295 148.334 174.894C147.415 174.448 146.425 174.165 145.791 174.164C145.089 174.164 144.704 174.289 144.604 174.548C144.504 174.808 144.676 175.016 145.137 175.191C145.51 175.333 145.902 175.583 146.006 175.747C146.11 175.911 146.197 176.13 146.199 176.233C146.201 176.337 145.977 176.647 145.701 176.923C145.385 177.239 144.865 177.424 144.297 177.424C143.611 177.424 143.22 177.238 142.667 176.645C142.1 176.038 141.939 175.631 141.939 174.798C141.939 174.095 142.118 173.503 142.463 173.065C142.751 172.698 143.31 172.232 143.705 172.028C144.099 171.824 144.987 171.656 145.677 171.656C146.367 171.656 147.659 171.92 148.548 172.243C149.436 172.565 150.893 173.35 151.785 173.986C152.676 174.623 154.139 175.935 155.036 176.904C155.932 177.872 157.067 179.429 157.557 180.364C158.047 181.299 158.527 182.487 158.623 183.004C158.784 183.874 158.753 183.945 158.205 183.948C157.879 183.95 157.368 184.017 157.068 184.098ZM183.522 183.927C183.341 183.917 183.018 183.833 182.806 183.739C182.593 183.645 182.019 183.258 181.528 182.879C181.038 182.499 180.42 182.189 180.154 182.189C179.888 182.189 179.251 182.535 178.738 182.958C178.225 183.38 177.691 183.656 177.552 183.57C177.413 183.484 177.299 183.183 177.299 182.902C177.299 182.62 177.683 182.006 178.152 181.537C178.872 180.816 179.181 180.684 180.149 180.684C181.045 180.684 181.473 180.839 182.118 181.394C182.571 181.785 183.135 182.175 183.37 182.261C183.649 182.362 184.156 182.119 184.818 181.566C185.378 181.098 186.068 180.641 186.351 180.552C186.633 180.462 187.127 180.454 187.448 180.535C187.768 180.615 188.505 181.077 189.083 181.56C189.662 182.044 190.21 182.439 190.3 182.437C190.391 182.436 190.96 182.041 191.566 181.56C192.337 180.946 192.923 180.684 193.522 180.684C193.992 180.684 194.706 180.855 195.109 181.063C195.512 181.272 195.958 181.659 196.1 181.924C196.242 182.19 196.358 182.64 196.358 182.925C196.358 183.21 196.211 183.443 196.031 183.443C195.85 183.443 195.321 183.161 194.853 182.816C194.386 182.471 193.808 182.189 193.57 182.189C193.331 182.189 192.817 182.454 192.427 182.779C192.038 183.103 191.472 183.498 191.171 183.656C190.87 183.815 190.401 183.945 190.129 183.945C189.857 183.945 189.162 183.55 188.584 183.067C188.006 182.584 187.403 182.176 187.244 182.159C187.084 182.143 186.785 182.152 186.578 182.18C186.371 182.208 185.919 182.49 185.575 182.806C185.23 183.123 184.701 183.508 184.4 183.663C184.099 183.818 183.704 183.937 183.522 183.927ZM11.0845 182.919C10.5741 182.907 9.63649 182.753 9.00099 182.578C8.36548 182.403 7.25764 181.939 6.53912 181.548C5.82059 181.157 4.67306 180.267 3.98904 179.57C3.30502 178.872 2.438 177.681 2.06232 176.923C1.44376 175.674 1.37927 175.283 1.37927 172.785C1.37927 170.175 1.4218 169.946 2.17071 168.522C2.60599 167.694 3.50759 166.475 4.17426 165.812C4.84093 165.149 6.06467 164.275 6.8937 163.869C7.72272 163.462 9.06623 163.009 9.87928 162.86C10.9579 162.663 11.8054 162.667 13.014 162.877C13.9374 163.038 15.3804 163.542 16.2748 164.016L17.8792 164.867L18.6101 164.346C19.0121 164.06 19.5993 163.242 19.915 162.528C20.2306 161.815 20.7885 161.034 21.1548 160.794C21.521 160.554 22.0975 160.253 22.4358 160.124C22.9939 159.912 23.1542 160.026 24.165 161.355C24.7777 162.161 25.4093 163.063 25.5685 163.361C25.8144 163.82 25.7566 164.024 25.1861 164.707C24.8164 165.15 24.2741 165.65 23.9808 165.817C23.6875 165.985 23.1655 166.129 22.8207 166.137C22.4706 166.146 21.7883 166.53 21.2756 167.007L20.3574 167.861L20.9906 169.428C21.54 170.789 21.6099 171.28 21.5192 173.144C21.4395 174.782 21.2564 175.637 20.7487 176.743C20.3824 177.54 19.4403 178.866 18.6552 179.689C17.8336 180.55 16.6851 181.439 15.9491 181.784C15.2458 182.113 14.0724 182.508 13.3415 182.662C12.6106 182.816 11.595 182.931 11.0845 182.919ZM181.186 178.929H178.302V178.177V177.424H181.186H184.07V178.177V178.929H181.186ZM192.847 178.929H190.089V178.177V177.424H192.847H195.606V178.177V178.929H192.847ZM11.4469 175.669C12.2127 175.669 12.7097 175.493 13.2674 175.023C13.6893 174.669 14.1603 173.958 14.3143 173.444C14.5389 172.694 14.518 172.328 14.2085 171.587C13.993 171.071 13.4567 170.441 12.9928 170.158C12.5362 169.88 11.7547 169.652 11.2561 169.651C10.7046 169.651 10.0787 169.863 9.65832 170.194C9.27819 170.493 8.80758 171.12 8.61251 171.586C8.40541 172.082 8.32112 172.769 8.40991 173.237C8.49355 173.678 8.69503 174.213 8.85766 174.427C9.02028 174.64 9.43236 175.007 9.77339 175.242C10.1164 175.478 10.8642 175.669 11.4469 175.669ZM187.135 173.853C175.495 173.908 173.503 173.866 173.385 173.558C173.309 173.36 173.284 172.936 173.329 172.615L173.412 172.033H187.079H200.747V172.91V173.788L187.135 173.853ZM50.9076 169.521C50.7007 169.565 50.2064 169.506 49.809 169.388C49.4117 169.271 48.8225 168.926 48.4997 168.623C48.177 168.32 47.7856 167.686 47.63 167.215C47.4744 166.743 47.419 165.974 47.5068 165.506C47.5947 165.037 48.0052 164.316 48.4191 163.902C48.8331 163.488 49.5535 163.078 50.0201 162.99C50.4867 162.902 51.2111 162.906 51.6298 162.998C52.0486 163.09 52.7345 163.556 53.1541 164.034C53.7834 164.751 53.9169 165.119 53.9169 166.139C53.9169 167.161 53.7836 167.528 53.1492 168.25C52.7269 168.731 52.1344 169.195 51.8326 169.282C51.5308 169.368 51.1145 169.476 50.9076 169.521ZM27.2686 163.632C27.2186 163.632 26.8895 163.321 26.5373 162.942C26.1851 162.563 25.4869 161.633 24.9857 160.876C24.4254 160.03 24.0745 159.198 24.0745 158.716C24.0745 158.284 24.2892 157.658 24.5517 157.325C24.8141 156.991 26.2976 155.829 27.8484 154.743C30.1833 153.107 30.8666 152.751 31.8226 152.669C32.6724 152.596 33.1886 152.702 33.7785 153.073C34.2193 153.35 34.7605 153.852 34.9812 154.189C35.2018 154.526 35.4473 155.201 35.5265 155.689C35.6277 156.313 35.5137 156.902 35.1444 157.665C34.8346 158.305 34.1263 159.118 33.4215 159.644C32.7633 160.134 31.4913 161.047 30.5947 161.671C29.6982 162.295 28.6035 162.992 28.1621 163.219C27.7207 163.446 27.3186 163.632 27.2686 163.632ZM28.8704 161.352C29.2671 161.07 29.5916 160.716 29.5916 160.566C29.5916 160.415 29.1265 159.69 28.558 158.953C27.867 158.057 27.3426 157.613 26.9759 157.613C26.6742 157.613 26.2168 157.767 25.9595 157.955C25.5091 158.284 25.5182 158.342 26.2009 159.507C26.5909 160.173 27.1889 160.976 27.5296 161.292L28.1492 161.866L28.8704 161.352ZM31.8271 158.365C32.3263 158.365 32.7957 158.133 33.2177 157.678C33.5681 157.3 33.8548 156.695 33.8548 156.333C33.8548 155.971 33.6209 155.377 33.3351 155.014C32.9518 154.526 32.5866 154.353 31.9444 154.353C31.3541 154.353 30.8752 154.551 30.4579 154.968C30.0699 155.356 29.8424 155.87 29.8424 156.359C29.8424 156.848 30.0699 157.362 30.4579 157.75C30.8384 158.13 31.3613 158.365 31.8271 158.365ZM32.0219 157.108C31.8576 157.105 31.5723 157.008 31.3878 156.891C31.2033 156.774 31.0905 156.409 31.137 156.08C31.1927 155.687 31.4121 155.454 31.7771 155.402C32.1934 155.343 32.372 155.481 32.4903 155.952C32.5771 156.298 32.5745 156.701 32.4844 156.846C32.3943 156.992 32.1862 157.11 32.0219 157.108ZM156.497 155.356C156.383 155.356 156.047 155.159 155.75 154.917L155.211 154.478L157.39 151.149C159.478 147.958 159.59 147.835 160.095 148.178C160.493 148.447 160.605 148.751 160.552 149.413C160.501 150.05 160.684 150.593 161.216 151.382C161.62 151.982 162.156 152.902 162.406 153.427C162.8 154.254 162.812 154.414 162.494 154.615C162.292 154.742 160.977 154.848 159.571 154.851C158.142 154.853 156.947 154.965 156.861 155.105C156.775 155.243 156.612 155.356 156.497 155.356ZM154.471 154.098C154.399 154.1 154.097 153.86 153.8 153.563C153.335 153.098 153.305 152.953 153.583 152.498C153.759 152.208 154.669 150.76 155.604 149.282L157.304 146.593L158.014 147.098L158.724 147.604L157.646 149.286C157.053 150.211 156.521 151.08 156.464 151.218C156.406 151.356 155.964 152.059 155.481 152.781C154.999 153.503 154.544 154.095 154.471 154.098ZM159.603 153.601C160.371 153.601 160.998 153.537 160.998 153.458C160.998 153.38 160.703 152.929 160.342 152.455C159.981 151.982 159.606 151.594 159.51 151.594C159.414 151.594 159.082 152.046 158.772 152.597L158.208 153.601H159.603ZM152.775 151.547C152.395 152.003 152.004 152.297 151.907 152.199C151.809 152.101 151.787 151.784 151.858 151.494C151.964 151.063 151.745 150.838 150.65 150.251L149.313 149.535L148.366 150.177C147.845 150.531 146.779 151.062 145.996 151.357C144.832 151.795 144.184 151.874 142.441 151.789C140.777 151.707 139.992 151.532 138.864 150.992C138.068 150.612 136.877 149.773 136.216 149.129C135.556 148.485 134.683 147.281 134.277 146.453C133.634 145.144 133.539 144.672 133.541 142.817C133.544 140.947 133.642 140.479 134.34 138.999C134.8 138.025 135.623 136.84 136.289 136.192C136.923 135.576 138.031 134.785 138.75 134.433C139.47 134.082 140.718 133.663 141.523 133.502C142.655 133.276 143.367 133.279 144.656 133.517C145.574 133.686 146.864 134.118 147.523 134.477C148.183 134.836 149.217 135.658 149.822 136.305C150.426 136.951 151.144 137.919 151.417 138.456C151.689 138.992 152.041 140.053 152.197 140.813C152.4 141.795 152.408 142.586 152.224 143.555C152.025 144.604 152.038 144.965 152.282 145.129C152.455 145.247 153.093 145.641 153.7 146.006L154.802 146.669L155.26 146.103C155.512 145.792 155.834 145.609 155.976 145.697C156.118 145.784 156.234 145.976 156.234 146.122C156.234 146.268 155.611 147.362 154.85 148.552C154.089 149.743 153.156 151.09 152.775 151.547ZM50.732 151.083C50.4838 151.078 49.9421 150.923 49.5284 150.739C49.1146 150.555 48.5425 150.136 48.2571 149.808C47.9717 149.48 47.0228 147.914 46.1484 146.328C45.274 144.742 44.0871 142.654 43.5109 141.689C42.9346 140.723 41.3345 138.015 39.9551 135.67C38.5757 133.325 36.8645 130.387 36.1525 129.141C35.2069 127.486 34.8579 126.614 34.8579 125.905C34.8579 125.097 35.0279 124.773 35.8716 123.97C36.6162 123.262 37.0988 123.006 37.6897 123.007C38.1322 123.007 38.8453 123.222 39.2744 123.484C39.7815 123.793 40.581 124.868 41.5578 126.555C42.3846 127.982 44.3591 131.35 45.9457 134.04C47.5322 136.73 49.9184 140.733 51.2483 142.937C53.0913 145.991 53.6659 147.154 53.6652 147.827C53.6647 148.313 53.444 149.072 53.1748 149.513C52.9055 149.955 52.3473 150.491 51.9343 150.704C51.5212 150.918 50.9802 151.088 50.732 151.083ZM50.5125 149.083C50.6608 149.081 50.9064 148.996 51.0582 148.895C51.2099 148.793 51.4569 148.477 51.607 148.191C51.8298 147.768 51.7436 147.434 51.1379 146.373C50.7298 145.659 50.3269 145.074 50.2425 145.074C50.1581 145.074 49.709 145.309 49.2445 145.596C48.7799 145.883 48.3999 146.171 48.3999 146.236C48.3999 146.3 48.5823 146.714 48.8054 147.156C49.0284 147.597 49.443 148.212 49.7268 148.522C50.0106 148.833 50.3641 149.085 50.5125 149.083ZM178.524 148.578C178.577 148.582 178.549 148.058 178.461 147.414C178.372 146.77 178.028 145.65 177.697 144.925C177.365 144.2 176.618 143.092 176.037 142.461C175.456 141.831 174.625 141.096 174.189 140.826C173.753 140.557 172.927 140.231 172.352 140.102C171.55 139.922 171.187 139.951 170.792 140.228C170.451 140.467 170.277 140.866 170.277 141.408C170.277 141.932 170.571 142.637 171.092 143.364C171.541 143.99 172.472 144.988 173.161 145.583C173.851 146.178 175.318 147.094 176.421 147.618C177.525 148.142 178.471 148.574 178.524 148.578ZM181.053 148.083C181.187 148.083 181.723 147.846 182.244 147.556C182.766 147.267 183.644 146.685 184.195 146.264C184.747 145.843 185.676 144.913 186.26 144.198C186.844 143.482 187.623 142.238 187.991 141.433C188.603 140.098 188.63 139.912 188.301 139.324C188.074 138.917 187.68 138.649 187.232 138.597C186.843 138.552 186.195 138.651 185.794 138.818C185.393 138.984 184.53 139.705 183.878 140.42C183.225 141.134 182.393 142.333 182.03 143.083C181.667 143.833 181.244 145.045 181.09 145.776C180.936 146.507 180.81 147.325 180.81 147.594C180.81 147.863 180.919 148.083 181.053 148.083ZM143.244 145.995C143.755 145.93 144.508 145.639 144.918 145.347C145.333 145.052 145.852 144.319 146.092 143.692C146.499 142.626 146.498 142.505 146.083 141.417C145.799 140.675 145.364 140.097 144.857 139.788C144.425 139.524 143.642 139.308 143.118 139.307C142.594 139.307 141.827 139.481 141.414 139.695C141.001 139.908 140.443 140.444 140.174 140.886C139.905 141.327 139.684 142.107 139.683 142.617C139.683 143.128 139.805 143.814 139.954 144.142C140.104 144.47 140.696 145.048 141.271 145.426C142.08 145.958 142.525 146.086 143.244 145.995ZM47.5466 144.322C47.6158 144.322 48.0054 144.15 48.4123 143.939C48.8192 143.729 49.1522 143.456 49.1522 143.332C49.1522 143.209 48.5479 142.112 47.8094 140.894C47.0709 139.676 45.4751 136.987 44.2631 134.918C43.0512 132.849 41.9203 131.005 41.7501 130.82C41.492 130.54 41.31 130.551 40.657 130.889C40.226 131.112 39.8735 131.407 39.8735 131.544C39.8735 131.682 40.5346 132.892 41.3427 134.234C42.1508 135.575 43.5257 137.915 44.3981 139.432C45.2705 140.949 46.3075 142.67 46.7025 143.256C47.0976 143.842 47.4775 144.322 47.5466 144.322ZM22.1937 141.92C21.9179 141.975 21.1518 141.914 20.4913 141.784C19.8309 141.654 18.6631 141.271 17.8963 140.932C17.1296 140.593 15.738 139.807 14.804 139.186C13.87 138.565 12.3858 137.289 11.5058 136.349C10.6257 135.41 9.48248 133.916 8.96526 133.03C8.44803 132.143 8.02485 131.164 8.02485 130.853C8.02485 130.441 8.21155 130.246 8.71448 130.134C9.09378 130.05 9.58669 129.932 9.80985 129.872C10.0979 129.796 10.4217 130.171 10.9262 131.169C11.3171 131.941 12.2939 133.29 13.0969 134.167C13.8999 135.043 15.2595 136.259 16.1183 136.87C16.9771 137.48 18.2436 138.228 18.9328 138.531C19.622 138.834 20.6519 139.146 21.2215 139.224C21.791 139.302 22.4685 139.247 22.7269 139.102C23.181 138.847 23.18 138.833 22.6953 138.678C22.4194 138.59 22.0244 138.43 21.8176 138.323C21.6107 138.215 21.4067 137.839 21.3644 137.487C21.3115 137.048 21.4666 136.721 21.859 136.447C22.1735 136.226 22.6595 136.047 22.9392 136.047C23.2188 136.048 23.7951 136.26 24.2199 136.519C24.6447 136.778 25.1372 137.34 25.3144 137.768C25.5038 138.225 25.5699 138.901 25.4747 139.408C25.3732 139.949 24.9852 140.559 24.4342 141.043C23.9509 141.467 23.362 141.816 23.1254 141.818C22.8888 141.819 22.4696 141.866 22.1937 141.92ZM39.1518 129.526C39.4108 129.526 39.6227 129.413 39.6227 129.275C39.6227 129.137 39.792 129.024 39.9988 129.024C40.2057 129.024 40.375 128.899 40.375 128.745C40.375 128.591 40.0701 127.886 39.6974 127.178C39.3248 126.469 38.8559 125.692 38.6555 125.451C38.455 125.21 38.0804 125.012 37.823 125.012C37.5656 125.012 37.2341 125.277 37.0863 125.602C36.8665 126.084 36.9412 126.437 37.4976 127.545C37.8716 128.29 38.2908 129.04 38.4292 129.213C38.5677 129.385 38.8929 129.526 39.1518 129.526ZM175.253 129.024C175.124 129.024 174.743 128.432 174.406 127.708C174.069 126.984 173.792 126.083 173.791 125.706C173.789 125.188 173.937 124.984 174.401 124.868C174.738 124.783 175.116 124.778 175.242 124.855C175.368 124.933 175.727 125.699 176.04 126.557L176.608 128.117L176.048 128.571C175.74 128.82 175.382 129.024 175.253 129.024ZM168.917 126.767C168.853 126.767 168.625 126.517 168.411 126.21C168.196 125.904 168.02 125.504 168.02 125.322C168.02 125.14 168.726 124.657 169.588 124.249C170.45 123.841 171.299 123.508 171.475 123.508C171.65 123.507 171.904 123.797 172.039 124.151C172.173 124.504 172.283 124.881 172.283 124.989C172.283 125.096 171.552 125.54 170.659 125.975C169.765 126.411 168.981 126.767 168.917 126.767ZM33.0498 123.741C32.4581 123.731 31.5248 123.558 30.9757 123.357C30.4266 123.156 29.6207 122.646 29.1848 122.224C28.7488 121.801 28.188 121.076 27.9385 120.613C27.4997 119.798 27.5001 119.754 27.9502 119.257C28.2061 118.974 28.5692 118.743 28.757 118.743C28.9448 118.743 29.5762 119.24 30.1601 119.849C30.889 120.608 31.5137 121.01 32.1538 121.129C32.8531 121.26 33.3543 121.172 34.16 120.779C34.7508 120.491 35.488 119.879 35.7983 119.42C36.1137 118.954 36.3626 118.204 36.3626 117.72C36.3626 117.197 36.1006 116.467 35.702 115.881L35.0414 114.909L35.6393 114.449C35.9681 114.196 36.37 113.987 36.5324 113.983C36.6948 113.98 37.1644 114.386 37.5761 114.886C37.9877 115.385 38.4529 116.304 38.6097 116.927C38.7666 117.55 38.8193 118.411 38.7267 118.84C38.6341 119.269 38.3568 120.015 38.1104 120.498C37.864 120.981 37.3417 121.674 36.9498 122.038C36.5579 122.402 35.7621 122.938 35.1814 123.229C34.5672 123.537 33.6756 123.751 33.0498 123.741ZM177.265 123.596C176.835 123.698 176.5 123.628 176.305 123.393C176.141 123.195 176.043 122.773 176.089 122.455C176.155 121.99 176.506 121.76 177.899 121.271C179.586 120.679 179.635 120.676 179.975 121.141C180.166 121.403 180.291 121.788 180.253 121.998C180.214 122.207 179.675 122.617 179.054 122.909C178.434 123.2 177.628 123.51 177.265 123.596ZM171.428 121.983C171.278 121.972 170.625 121.709 169.978 121.398C169.33 121.088 168.625 120.688 168.411 120.51C168.196 120.332 168.02 120.099 168.02 119.994C168.02 119.888 168.224 119.55 168.472 119.243L168.924 118.685L170.46 119.461C171.305 119.887 172.062 120.343 172.143 120.474C172.224 120.604 172.157 121.002 171.996 121.357C171.834 121.712 171.578 121.994 171.428 121.983ZM106.455 120.84C109.213 120.785 112.061 120.649 112.783 120.539C113.505 120.428 114.159 120.275 114.236 120.199C114.312 120.122 114.15 119.396 113.876 118.586C113.601 117.776 113.208 116.436 113.001 115.608C112.794 114.78 112.457 113.031 112.253 111.721C112.048 110.411 111.732 107.984 111.55 106.329C111.313 104.172 111.219 99.001 111.219 88.068V72.8161L110.592 72.9757C110.248 73.0635 108.547 73.1968 106.814 73.2719C103.787 73.4032 103.578 73.379 101.478 72.6555L99.2936 71.9024L99.4499 74.1946C99.5359 75.4553 100.128 79.8723 100.766 84.0101C101.79 90.6485 101.924 91.9906 101.907 95.4204C101.897 97.5583 101.751 100.605 101.583 102.191C101.415 103.778 101.005 107.107 100.671 109.589C100.337 112.072 99.7248 115.441 99.3098 117.077C98.8947 118.712 98.5552 120.202 98.5552 120.387C98.5552 120.617 99.011 120.758 99.9971 120.832C100.79 120.892 103.696 120.895 106.455 120.84ZM174.653 120.749C174.506 120.749 174.185 120.602 173.939 120.422C173.532 120.125 173.52 119.951 173.802 118.479C173.972 117.589 174.221 116.721 174.356 116.548C174.491 116.376 174.8 116.235 175.042 116.235C175.284 116.235 175.618 116.399 175.784 116.599C176.019 116.881 176.019 117.283 175.787 118.402C175.623 119.193 175.361 120.045 175.205 120.295C175.049 120.545 174.801 120.749 174.653 120.749ZM32.6444 119.729C32.2757 119.719 31.7468 119.601 31.4692 119.466C31.1916 119.331 30.712 118.852 30.4034 118.402C30.0949 117.952 29.8424 117.41 29.8424 117.199C29.8424 116.987 30.061 116.616 30.3281 116.375C30.5953 116.133 30.9384 116.012 31.0906 116.106C31.2428 116.2 31.6545 116.732 32.0055 117.288C32.4052 117.921 32.732 118.21 32.8801 118.062C33.0282 117.914 32.9286 117.411 32.6135 116.717C32.3368 116.107 32.1079 115.485 32.1049 115.335C32.1019 115.184 32.3757 114.936 32.7135 114.782C33.2586 114.533 33.4022 114.591 33.992 115.292C34.3575 115.726 34.7469 116.319 34.8574 116.61C34.9679 116.9 34.9998 117.444 34.9283 117.818C34.8569 118.192 34.4646 118.778 34.0566 119.122C33.6485 119.465 33.0132 119.738 32.6444 119.729ZM151.807 119.215C151.414 119.325 150.77 119.326 150.376 119.219C149.982 119.111 149.431 118.818 149.15 118.569C148.87 118.32 148.484 117.745 148.292 117.292C148.023 116.655 148.004 116.242 148.211 115.476C148.437 114.636 149.11 113.924 152.653 110.784C154.949 108.747 157.667 106.324 158.692 105.399C159.717 104.473 160.937 103.59 161.404 103.436C162.033 103.228 162.477 103.23 163.122 103.443C163.6 103.6 164.277 104.069 164.627 104.484C165 104.928 165.262 105.552 165.262 105.997C165.262 106.414 165.086 107.125 164.872 107.577C164.657 108.029 164.008 108.778 163.43 109.242C162.851 109.705 160.346 111.947 157.864 114.225C155.381 116.503 153.163 118.512 152.935 118.69C152.707 118.869 152.199 119.105 151.807 119.215ZM3.50226 114.891C2.84976 114.955 2.12386 114.865 1.76296 114.674C1.42228 114.494 0.88625 113.965 0.571774 113.498C0.257298 113.032 0 112.373 0 112.035C0 111.697 0.188454 111.023 0.418788 110.538C0.649121 110.053 1.18516 109.437 1.60998 109.17C2.17756 108.813 2.67933 108.714 3.50226 108.799C4.38861 108.889 4.79389 109.1 5.44577 109.812C6.12326 110.551 6.26941 110.912 6.26941 111.846C6.26941 112.781 6.12326 113.142 5.44577 113.881C4.79204 114.594 4.39113 114.803 3.50226 114.891ZM53.8748 112.814C53.6911 112.864 53.2907 112.856 52.9851 112.798C52.6795 112.739 52.1434 112.352 51.7939 111.936C51.4444 111.521 51.1584 110.902 51.1584 110.561C51.1584 110.22 51.3192 109.63 51.5158 109.25C51.7123 108.869 52.169 108.424 52.5307 108.259C52.8923 108.094 53.4564 107.959 53.7841 107.959C54.1119 107.959 54.7272 108.251 55.1516 108.608C55.7916 109.147 55.9232 109.441 55.9232 110.33C55.9232 111.154 55.7701 111.555 55.262 112.063C54.8984 112.426 54.5126 112.724 54.4048 112.724C54.297 112.724 54.0584 112.765 53.8748 112.814ZM195.43 112.708C195.182 112.699 194.737 112.595 194.441 112.475C194.146 112.356 193.723 112 193.501 111.683C193.279 111.367 193.098 110.789 193.098 110.399C193.098 110.009 193.265 109.366 193.47 108.971C193.692 108.54 194.181 108.14 194.687 107.973C195.249 107.787 195.745 107.774 196.164 107.933C196.51 108.065 197.034 108.478 197.328 108.852C197.622 109.226 197.863 109.793 197.863 110.113C197.863 110.433 197.728 110.99 197.563 111.352C197.398 111.713 196.952 112.17 196.572 112.367C196.192 112.563 195.678 112.717 195.43 112.708ZM90.2795 110.388C90.4864 110.359 90.6557 110.207 90.6557 110.051C90.6557 109.894 89.9456 109.244 89.0777 108.605C88.2097 107.966 87.4341 107.272 87.3539 107.063C87.2738 106.855 87.2507 106.641 87.3026 106.589C87.3545 106.537 88.3951 106.881 89.615 107.353C90.8349 107.824 92.1124 108.21 92.4539 108.21C92.8986 108.21 93.0518 108.091 92.9938 107.792C92.9492 107.562 92.2324 107.026 91.401 106.601C90.5696 106.176 89.5542 105.583 89.1445 105.284C88.7348 104.985 88.4791 104.661 88.5763 104.563C88.6734 104.466 89.8017 104.684 91.0836 105.046C92.3654 105.409 93.5979 105.705 93.8224 105.704C94.0469 105.703 94.3586 105.548 94.5151 105.359C94.7291 105.102 94.7212 104.955 94.4831 104.768C94.309 104.632 93.349 104.212 92.3498 103.836C91.3505 103.46 90.2785 102.929 89.9674 102.658L89.4018 102.164L91.1572 102.356C92.1227 102.462 93.4769 102.553 94.1666 102.558C95.2484 102.566 95.4204 102.5 95.4204 102.075C95.4204 101.705 95.1732 101.53 94.4173 101.366C93.8656 101.247 92.5961 100.916 91.5961 100.631C90.5717 100.339 89.778 99.9737 89.778 99.7952C89.778 99.5966 90.4574 99.3652 91.5961 99.176C92.5961 99.0098 93.7246 98.6931 94.1039 98.4723C94.4832 98.2515 94.7935 97.9326 94.7935 97.7635C94.7935 97.5945 94.6856 97.3896 94.5537 97.308C94.4218 97.2265 93.6036 97.3213 92.7356 97.5187C91.8675 97.7161 90.5366 97.9589 89.778 98.0581C89.0194 98.1574 87.983 98.4493 87.475 98.7069C86.7396 99.0797 85.887 100.165 83.2937 104.028L80.0361 108.881L81.1521 109.423C81.7659 109.721 82.4134 109.965 82.591 109.965C82.7685 109.965 83.2943 109.458 83.7593 108.837C84.2244 108.216 84.7155 107.708 84.8507 107.708C84.9859 107.708 85.9069 108.214 86.8973 108.831C87.8877 109.448 88.9692 110.063 89.3007 110.197C89.6322 110.331 90.0726 110.417 90.2795 110.388ZM117.677 109.712C118.125 109.711 119.056 109.431 119.746 109.09C120.435 108.749 121.378 108.251 121.84 107.982C122.303 107.713 122.829 107.55 123.011 107.62C123.192 107.689 123.633 108.189 123.992 108.73C124.35 109.272 124.737 109.715 124.853 109.715C124.968 109.715 125.446 109.585 125.915 109.427C126.384 109.268 126.797 109.116 126.834 109.089C126.87 109.061 126.598 108.485 126.229 107.809C125.86 107.133 124.602 104.887 123.433 102.818C122.264 100.749 121.091 98.8176 120.827 98.5255C120.508 98.1718 119.912 97.9426 119.043 97.8398C118.326 97.7548 117.085 97.5142 116.285 97.3052C115.486 97.0961 114.611 96.9251 114.342 96.9251C114.072 96.9251 113.853 97.0954 113.853 97.3049C113.853 97.5139 114.205 97.8994 114.637 98.1618C115.068 98.4241 116.063 98.7132 116.847 98.8043C117.632 98.8953 118.435 99.0693 118.632 99.1909C118.903 99.3586 118.919 99.4822 118.698 99.7027C118.539 99.8627 117.265 100.203 115.867 100.458C114.47 100.714 113.22 100.989 113.088 101.07C112.957 101.151 112.849 101.381 112.849 101.579C112.849 101.778 112.99 101.953 113.163 101.968C113.335 101.982 114.379 101.976 115.483 101.954C116.586 101.932 117.677 101.859 117.907 101.792C118.136 101.724 118.397 101.786 118.485 101.929C118.573 102.072 118.371 102.314 118.036 102.467C117.7 102.62 116.537 103.044 115.451 103.409C114.158 103.843 113.476 104.202 113.476 104.448C113.476 104.674 113.757 104.857 114.179 104.905C114.565 104.949 115.877 104.752 117.094 104.466C118.311 104.181 119.377 103.947 119.463 103.947C119.55 103.947 119.62 104.063 119.62 104.205C119.62 104.346 118.545 104.986 117.231 105.625C115.917 106.265 114.885 106.911 114.938 107.06C114.993 107.215 115.51 107.303 116.137 107.263C116.742 107.225 117.951 106.96 118.821 106.673C119.692 106.387 120.47 106.218 120.55 106.297C120.63 106.377 120.558 106.607 120.392 106.808C120.225 107.009 119.363 107.66 118.476 108.256C117.59 108.851 116.864 109.423 116.863 109.527C116.862 109.63 117.229 109.714 117.677 109.712ZM33.604 99.4249C32.9241 99.4267 31.9771 99.1892 31.2217 98.8273C30.532 98.4969 28.2186 97.0951 26.0808 95.7122C23.9429 94.3293 21.1781 92.5482 19.9367 91.7543C18.6954 90.9604 17.0916 89.9289 16.3728 89.4622C15.3806 88.8179 14.9044 88.2835 14.3954 87.2432C13.8353 86.0984 13.7499 85.6627 13.8762 84.5963C13.9593 83.8942 14.2203 83.0237 14.456 82.6618C14.6918 82.3 15.9894 80.5933 17.3396 78.8692C18.6899 77.1451 21.1266 74.0429 22.7546 71.9753C24.3826 69.9078 25.8969 68.181 26.1196 68.1381C26.3423 68.0953 26.8365 68.3285 27.2179 68.6566L27.9112 69.253L26.1985 71.4906C25.2565 72.7213 24.1958 74.0804 23.8413 74.5107C23.4868 74.9411 22.4135 76.2953 21.4561 77.52C20.4987 78.7448 19.0765 80.5368 18.2957 81.5023C17.5148 82.4678 16.6829 83.6328 16.4469 84.0911C16.1769 84.6156 16.0751 85.1848 16.1722 85.627C16.2571 86.0134 16.5745 86.5586 16.8777 86.8387C17.1809 87.1187 20.7931 89.5027 24.9049 92.1365C31.9547 96.6521 32.4496 96.9251 33.5856 96.9251C34.4045 96.9251 34.9914 96.7669 35.4184 96.431C35.7639 96.1592 36.8853 94.8333 37.9103 93.4844C38.9354 92.1355 40.8967 89.5872 42.2688 87.8215C43.641 86.0558 44.9605 84.3066 45.2011 83.9344C45.4418 83.5623 45.6393 83.0623 45.64 82.8233C45.6408 82.558 44.848 81.8577 43.6041 81.0249C42.4837 80.2748 41.4398 79.7143 41.2845 79.7794C41.1291 79.8445 40.6162 80.4281 40.1447 81.0762C39.6732 81.7244 38.0479 83.8687 36.533 85.8415C35.0181 87.8142 33.4628 89.5916 33.0769 89.7912C32.6909 89.9908 31.9637 90.1541 31.4609 90.1541C30.7773 90.1541 30.0308 89.8152 28.5018 88.8105C27.3771 88.0715 25.6368 86.9424 24.6344 86.3015C23.632 85.6606 22.5886 84.77 22.3156 84.3224C22.0427 83.8748 21.8196 83.1136 21.8198 82.6308C21.82 82.1481 22.0735 81.3505 22.3831 80.8583C22.6927 80.3662 23.4785 79.2941 24.1292 78.476C24.7799 77.6578 26.4463 75.5495 27.8322 73.791C29.2181 72.0324 30.4013 70.5936 30.4616 70.5936C30.5218 70.5936 30.8868 70.7316 31.2726 70.9002C31.6584 71.0688 33.4136 72.1504 35.1731 73.3036L38.3723 75.4004L37.9317 76.151C37.6894 76.5638 37.3713 77.0019 37.225 77.1245C37.0573 77.2649 35.9436 76.6871 34.2156 75.5632C32.7069 74.5819 31.3461 73.7677 31.1917 73.7537C31.0373 73.7397 29.4272 75.6467 27.6136 77.9915C25.5126 80.7077 24.3405 82.4342 24.3834 82.7494C24.4271 83.0704 25.5516 83.9746 27.5854 85.324C29.3095 86.468 30.9975 87.4766 31.3365 87.5654C31.8421 87.6979 32.1023 87.5507 32.7843 86.7462C33.2416 86.2069 35.1702 83.7348 37.0701 81.2527C38.97 78.7706 40.7194 76.7023 40.9577 76.6564C41.1959 76.6105 42.6841 77.4306 44.2648 78.4788C46.0549 79.6659 47.2819 80.6616 47.5185 81.1191C47.7274 81.5231 47.8983 82.3542 47.8983 82.966C47.8983 83.8455 47.6912 84.3862 46.909 85.5489C46.3649 86.3577 44.209 89.22 42.1182 91.9096C40.0274 94.5991 37.9617 97.1802 37.5278 97.6453C37.0938 98.1105 36.2874 98.7004 35.7356 98.9564C35.1839 99.2124 34.2247 99.4232 33.604 99.4249ZM84.6998 95.9073C84.9042 95.9169 85.012 95.5512 85.0098 94.8562C85.0079 94.27 84.9362 93.5285 84.8505 93.2084C84.6973 92.636 84.6785 92.6421 83.7244 93.5737L82.7542 94.5211L81.4387 93.8577C80.7151 93.4929 79.2317 92.9045 78.1423 92.5503C77.0529 92.196 75.3601 91.8479 74.3807 91.7768C73.1761 91.6893 72.7621 91.7233 73.1013 91.8817C73.3772 92.0105 75.1828 92.6318 77.1138 93.2622C79.0447 93.8927 81.471 94.7425 82.5055 95.1506C83.5399 95.5587 84.5273 95.8993 84.6998 95.9073ZM130.31 93.9993C133.293 92.999 135.804 92.1055 135.89 92.0137C135.976 91.9219 135.373 91.9285 134.551 92.0283C133.728 92.1282 132.317 92.4365 131.416 92.7136C130.514 92.9907 129.108 93.5477 128.292 93.9514L126.806 94.6855L125.847 93.7482L124.887 92.8109V94.3145V95.8181L130.31 93.9993ZM163.518 95.8314C162.52 95.8836 161.42 95.771 160.713 95.5442C160.074 95.3389 159.002 94.7964 158.331 94.3385C157.66 93.8807 156.744 92.9633 156.294 92.3C155.845 91.6367 155.295 90.4691 155.073 89.7054C154.794 88.7461 154.719 87.8835 154.831 86.9157C154.919 86.1452 155.272 84.9382 155.614 84.2334C155.956 83.5287 156.831 82.3896 157.558 81.7021C158.41 80.8958 159.411 80.2514 160.378 79.8869C161.592 79.4291 162.234 79.3423 163.757 79.43C165.005 79.502 165.985 79.717 166.67 80.0695C167.238 80.3616 168.05 80.8931 168.475 81.2506L169.247 81.9005L170.506 81.2626C171.199 80.9117 171.825 80.6246 171.899 80.6246C171.972 80.6246 172.033 80.7491 172.033 80.9011C172.033 81.0532 172.484 82.1409 173.036 83.3182C173.587 84.4955 174.039 85.5974 174.039 85.7668C174.039 85.9362 173.492 86.3022 172.823 86.5801C171.612 87.0836 171.607 87.0905 171.44 88.5042C171.349 89.2846 171.043 90.4136 170.761 91.0132C170.479 91.6127 169.854 92.5648 169.371 93.129C168.834 93.7563 167.845 94.4638 166.826 94.9501C165.608 95.5314 164.718 95.7686 163.518 95.8314ZM203.613 95.6712C202.734 95.6712 202.414 95.5171 201.595 94.6976C200.729 93.8321 200.621 93.5878 200.621 92.4978C200.621 91.5013 200.764 91.0979 201.385 90.3454C201.827 89.8087 202.512 89.3186 203.015 89.18C203.56 89.0293 204.199 89.0283 204.738 89.1773C205.21 89.3075 205.943 89.8101 206.368 90.2943C206.971 90.9806 207.141 91.4078 207.14 92.2318C207.14 92.8373 206.93 93.6318 206.65 94.0917C206.381 94.5332 205.822 95.0693 205.409 95.2829C204.996 95.4965 204.188 95.6712 203.613 95.6712ZM163.176 91.9094C163.616 91.9095 164.293 91.7895 164.681 91.6428C165.069 91.4961 165.711 91.0729 166.108 90.7024C166.504 90.3319 166.984 89.6656 167.173 89.2218C167.363 88.7779 167.519 88.0034 167.519 87.5005C167.519 86.9976 167.266 86.1365 166.957 85.587C166.643 85.0287 165.942 84.3221 165.368 83.9855C164.724 83.6082 163.946 83.3832 163.286 83.3832C162.707 83.3832 161.786 83.6111 161.24 83.8897C160.694 84.1683 159.951 84.8423 159.591 85.3876C159.117 86.1033 158.929 86.7236 158.916 87.6181C158.902 88.5548 159.057 89.0984 159.551 89.8455C159.928 90.4156 160.665 91.0613 161.291 91.3715C161.889 91.6672 162.737 91.9093 163.176 91.9094ZM175.515 85.3894C175.403 85.3894 175.205 85.1919 175.077 84.9505C174.948 84.7091 174.436 83.4702 173.939 82.1974C173.442 80.9245 173.036 79.8396 173.036 79.7864C173.036 79.7332 173.55 79.4931 174.179 79.2529C174.809 79.0126 175.354 78.8562 175.391 78.9053C175.428 78.9544 175.781 79.7845 176.175 80.75C176.568 81.7155 176.996 82.6465 177.126 82.8189C177.255 82.9913 177.576 83.1324 177.839 83.1324C178.102 83.1324 178.375 82.9828 178.445 82.7999C178.516 82.6171 178.173 81.5202 177.685 80.3625C177.197 79.2047 176.797 78.2281 176.797 78.1923C176.797 78.1564 177.259 77.8914 177.824 77.6033C178.389 77.3152 180.669 76.2973 182.891 75.3412C185.686 74.1388 187.245 73.6034 187.946 73.6045C188.525 73.6055 189.275 73.8141 189.695 74.091C190.1 74.3576 190.576 74.8365 190.752 75.1551C190.929 75.4738 191.078 76.1068 191.083 76.562C191.088 77.0171 190.924 77.7135 190.719 78.1095C190.514 78.5056 190.027 79.0575 189.636 79.3359C189.245 79.6144 187.184 80.5712 185.055 81.4622C182.927 82.3531 179.956 83.6012 178.453 84.2357C176.95 84.8702 175.628 85.3894 175.515 85.3894ZM181.611 80.8754C181.907 80.8754 182.356 80.6886 182.608 80.4604C182.86 80.2321 183.067 79.7269 183.067 79.3377C183.067 78.8565 182.863 78.4963 182.43 78.2125C181.922 77.88 181.668 77.8516 181.183 78.0728C180.847 78.2256 180.501 78.6374 180.413 78.9879C180.312 79.3914 180.403 79.8545 180.663 80.2503C180.889 80.5955 181.313 80.8754 181.611 80.8754ZM187.33 78.6184C187.48 78.6184 187.881 78.3414 188.219 78.0029C188.558 77.6643 188.835 77.2129 188.835 76.9998C188.835 76.7866 188.609 76.3865 188.333 76.1106C188.057 75.8348 187.563 75.6091 187.235 75.6091C186.907 75.6091 186.526 75.7502 186.388 75.9226C186.25 76.095 186.06 76.4881 185.966 76.7961C185.84 77.2082 185.961 77.5229 186.425 77.9873C186.772 78.3344 187.18 78.6184 187.33 78.6184ZM212.282 77.8544C211.868 77.8498 211.221 77.6784 210.843 77.4735C210.466 77.2687 209.986 76.771 209.778 76.3675C209.569 75.9641 209.398 75.3407 209.398 74.9822C209.398 74.6236 209.567 74.0042 209.773 73.6057C209.979 73.2071 210.399 72.7049 210.707 72.4896C211.014 72.2744 211.723 72.0982 212.282 72.0982C212.842 72.0982 213.551 72.2744 213.858 72.4896C214.165 72.7049 214.585 73.2071 214.791 73.6057C214.998 74.0042 215.162 74.6462 215.157 75.0324C215.152 75.4185 215.004 75.9952 214.827 76.3138C214.65 76.6325 214.175 77.1114 213.77 77.378C213.366 77.6446 212.696 77.859 212.282 77.8544ZM151.469 72.2514C150.818 72.3122 150.017 72.21 149.576 72.0099C149.155 71.8192 148.517 71.3136 148.157 70.8863C147.798 70.459 147.429 69.6684 147.338 69.1294C147.229 68.4866 147.301 67.8422 147.546 67.2564C147.751 66.7652 149.266 64.1271 150.912 61.394C152.558 58.6609 155.459 53.7727 157.359 50.5315C159.258 47.2902 161.079 44.2182 161.406 43.7048C161.732 43.1914 162.358 42.5859 162.796 42.3592C163.235 42.1326 164.025 41.9531 164.553 41.9604C165.081 41.9677 165.512 41.8881 165.512 41.7835C165.512 41.6789 166.345 40.1985 167.364 38.4937L169.215 35.394L168.478 34.6244C168.073 34.2011 167.588 33.5688 167.401 33.2192C167.213 32.8696 166.983 32.1738 166.889 31.673C166.78 31.0908 166.868 30.2466 167.134 29.3322C167.363 28.5456 167.827 27.464 168.164 26.9287C168.502 26.3933 168.829 25.9554 168.889 25.9554C168.95 25.9554 169.287 26.0863 169.638 26.2464C169.99 26.4065 170.274 26.6039 170.269 26.6853C170.265 26.7666 169.926 27.5073 169.517 28.3314C169.01 29.3522 168.773 30.2051 168.773 31.008C168.773 31.9133 168.925 32.3672 169.429 32.9669C169.791 33.3962 170.406 33.9127 170.796 34.1146C171.187 34.3165 171.906 34.4818 172.396 34.4818C173.064 34.4818 173.533 34.2582 174.281 33.5818C174.829 33.0868 175.566 32.0712 175.919 31.3248C176.272 30.5785 176.678 29.9678 176.821 29.9678C176.964 29.9678 177.299 30.0846 177.566 30.2274C177.833 30.3702 178.051 30.656 178.051 30.8627C178.051 31.0693 177.775 31.7827 177.438 32.4481C177.101 33.1135 176.523 34.0175 176.153 34.457C175.783 34.8965 175.015 35.4986 174.446 35.795C173.727 36.1697 172.991 36.3269 172.03 36.311L170.648 36.2882L169.66 37.9554C169.117 38.8724 168.258 40.3156 167.752 41.1624L166.831 42.7021L167.339 43.5051C167.622 43.9517 167.858 44.7709 167.871 45.3508C167.891 46.2479 167.452 47.1645 164.73 51.9107C162.989 54.9451 160.606 59.1205 159.433 61.1895C158.261 63.2584 156.694 66.0698 155.952 67.4371C155.211 68.8043 154.152 70.4232 153.601 71.0346C152.752 71.975 152.424 72.1624 151.469 72.2514ZM106.204 72.0644C107.307 72.0609 108.876 71.8696 109.691 71.6393L111.171 71.2205L111.276 68.3283L111.38 65.436L109.155 65.1776C107.602 64.9972 106.432 64.6863 105.282 64.1481C104.376 63.724 103.027 62.9682 102.286 62.4684L100.938 61.5597L100.481 62.6285C100.229 63.2163 99.8626 64.3134 99.6656 65.0665C99.4687 65.8196 99.3075 67.3741 99.3075 68.5209C99.3075 70.5636 99.3215 70.6114 99.9971 70.8732C100.376 71.0201 101.477 71.3497 102.442 71.6055C103.471 71.878 105.028 72.068 106.204 72.0644ZM151.109 70.3428C151.7 70.3428 152.093 70.1442 152.531 69.6238C152.864 69.2283 153.282 68.5511 153.462 68.1189C153.716 67.5036 153.721 67.2539 153.484 66.9684C153.318 66.7679 152.675 66.3067 152.055 65.9435C151.435 65.5802 150.901 65.3212 150.869 65.3678C150.837 65.4145 150.443 66.0169 149.995 66.7065C149.371 67.6648 149.213 68.1339 149.324 68.6963C149.404 69.101 149.654 69.6371 149.881 69.8875C150.118 70.1498 150.639 70.3428 151.109 70.3428ZM52.1113 65.8273C51.7941 65.8264 51.2161 65.6596 50.8269 65.4566C50.4377 65.2536 49.9054 64.8311 49.644 64.5178C49.3826 64.2044 49.0974 63.5886 49.0102 63.1493C48.9231 62.71 48.9849 61.9471 49.1477 61.4538C49.3105 60.9605 49.8119 60.2761 50.262 59.9328C50.8698 59.4692 51.3883 59.3086 52.2774 59.3086C53.3335 59.3086 53.589 59.4232 54.448 60.2822C55.2931 61.1273 55.4216 61.4062 55.4216 62.3946C55.4216 63.2572 55.2623 63.7226 54.7648 64.3139C54.4035 64.7432 53.7885 65.2597 53.398 65.4617C53.0075 65.6636 52.4284 65.8281 52.1113 65.8273ZM155.952 63.6036C156.562 62.5517 157.589 60.7318 158.236 59.5594C158.883 58.387 159.92 56.5814 160.54 55.547C161.161 54.5125 162.054 52.9891 162.525 52.1615C162.996 51.3339 163.497 50.4313 163.639 50.1557C163.866 49.7148 163.733 49.556 162.536 48.8348C161.787 48.384 161.147 48.0452 161.114 48.0821C161.08 48.1189 159.783 50.2932 158.232 52.9138C156.68 55.5344 154.988 58.3557 154.471 59.1832C153.954 60.0108 153.265 61.1903 152.939 61.8043C152.613 62.4183 152.203 63.0779 152.027 63.2701C151.761 63.5612 151.97 63.7779 153.276 64.5679L154.844 65.5162L155.952 63.6036ZM193.098 63.138C192.615 63.2103 191.793 63.1692 191.272 63.0467C190.75 62.9242 190.016 62.6637 189.642 62.4679C189.267 62.2721 188.656 61.7915 188.284 61.3999C187.912 61.0083 187.432 60.2683 187.218 59.7555C187.004 59.2427 186.831 58.2835 186.834 57.6239C186.837 56.9644 187.059 55.942 187.326 55.3519C187.674 54.5868 189.905 52.2179 195.107 47.0912C199.119 43.1378 202.646 39.7322 202.944 39.5231C203.243 39.314 203.768 39.138 204.111 39.132C204.607 39.1234 205.06 38.6601 206.314 36.8801C207.887 34.6478 207.892 34.6372 207.406 34.1209C207.139 33.8358 206.603 32.9258 206.215 32.0986C205.578 30.7363 205.511 30.335 205.511 27.8362C205.511 25.2556 205.563 24.9689 206.31 23.3916C206.749 22.4643 207.625 21.1532 208.257 20.4782C208.888 19.8031 210.094 18.8836 210.936 18.4347C211.778 17.9859 213.046 17.4645 213.754 17.276C214.462 17.0876 215.661 16.9348 216.42 16.9365C217.179 16.9383 218.302 17.0556 218.917 17.1973C219.532 17.339 220.604 17.7407 221.3 18.09C221.995 18.4393 223.059 19.1309 223.665 19.6269C224.27 20.1229 225.187 21.1822 225.704 21.9809C226.22 22.7796 226.84 24.1631 227.081 25.0552C227.394 26.2084 227.487 27.249 227.406 28.6552C227.318 30.1705 227.114 31.0099 226.533 32.244C226.116 33.1299 225.263 34.4191 224.636 35.1087C224.01 35.7983 222.892 36.7251 222.153 37.1683C221.414 37.6114 220.075 38.1614 219.179 38.3905C218.039 38.6818 216.974 38.7678 215.637 38.6765C214.586 38.6047 213.507 38.429 213.239 38.2859C212.831 38.0671 212.511 38.2424 211.219 39.3926C210.375 40.1442 209.454 41.1331 209.172 41.5901C208.889 42.047 208.671 42.807 208.686 43.2788C208.709 43.9654 208.343 44.6622 206.854 46.7698C205.831 48.218 204.466 50.1365 203.821 51.033C203.176 51.9295 201.274 54.6379 199.594 57.0516C197.914 59.4654 196.301 61.652 196.01 61.9109C195.719 62.1698 195.142 62.5222 194.728 62.6941C194.314 62.8661 193.581 63.0658 193.098 63.138ZM128.799 62.6941C129.072 62.3394 129.14 61.9012 129.03 61.1979C128.945 60.6508 128.578 59.8121 128.213 59.3342C127.848 58.8562 127.511 58.5834 127.463 58.7278C127.415 58.8722 127.605 59.574 127.886 60.2873C128.168 61.0006 128.401 61.9468 128.406 62.3899C128.413 63.1656 128.428 63.1769 128.799 62.6941ZM105.462 61.3008C105.881 61.3085 106.887 61.142 107.698 60.9309C108.509 60.7197 109.835 60.1936 110.645 59.7618C111.465 59.325 112.72 58.3269 113.475 57.5117C114.221 56.7059 115.166 55.3418 115.575 54.4802C115.984 53.6187 116.441 52.2442 116.59 51.4258C116.74 50.6074 116.861 47.9554 116.86 45.5326C116.86 43.1097 116.742 40.7047 116.598 40.1882C116.431 39.5853 116.042 39.0466 115.514 38.6835C115.061 38.3725 114.329 37.7042 113.887 37.1983C113.446 36.6925 112.697 35.5348 112.223 34.6257C111.749 33.7165 111.287 32.4094 111.195 31.721C111.104 31.0326 110.937 30.4693 110.825 30.4693C110.712 30.4693 110.191 30.8752 109.666 31.3713C109.141 31.8674 107.937 32.7837 106.991 33.4076C106.045 34.0314 104.21 35.0376 102.913 35.6434C101.617 36.2493 99.7955 37.0329 98.866 37.3847C97.9364 37.7365 96.0474 38.2991 94.6681 38.6351C93.2888 38.971 91.4833 39.2551 90.6557 39.2665L89.151 39.2871L90.1541 39.7618C90.7943 40.0647 91.719 40.2388 92.7098 40.243C93.6699 40.2471 94.3398 40.3692 94.4652 40.5631C94.5768 40.7355 94.7279 43.4157 94.8009 46.519C94.9218 51.6549 94.986 52.2926 95.5155 53.6221C95.8355 54.4254 96.6221 55.7737 97.2636 56.6182C97.9239 57.4876 99.1119 58.6185 100.002 59.2252C100.867 59.8145 102.278 60.5194 103.137 60.7917C103.996 61.0639 105.042 61.293 105.462 61.3008ZM134.165 61.1895C134.303 61.1042 134.416 60.4217 134.416 59.6727C134.416 58.9237 134.208 57.763 133.954 57.0934C133.699 56.4238 133.148 55.3788 132.729 54.7711C132.309 54.1634 131.288 52.9326 130.459 52.0361C129.63 51.1396 128.868 50.4872 128.766 50.5863C128.664 50.6855 128.756 51.024 128.971 51.3386C129.186 51.6533 129.828 52.4185 130.397 53.0392C130.967 53.6599 131.832 54.8747 132.321 55.7388C132.81 56.603 133.367 57.9007 133.559 58.6228C133.751 59.3448 133.91 60.2526 133.912 60.64C133.913 61.0452 134.021 61.2786 134.165 61.1895ZM193.016 59.2888C193.178 59.2997 193.644 59.0274 194.053 58.6836C194.481 58.3237 194.843 57.7368 194.907 57.3002C194.974 56.8427 194.843 56.254 194.577 55.8161C194.334 55.4168 193.894 55.0135 193.599 54.9198C193.303 54.8261 192.814 54.8116 192.511 54.8877C192.207 54.9638 191.708 55.2605 191.4 55.547C191.012 55.9088 190.841 56.3584 190.841 57.0177C190.841 57.6832 191.01 58.1209 191.405 58.4807C191.715 58.763 192.139 59.0559 192.346 59.1315C192.552 59.2071 192.854 59.2779 193.016 59.2888ZM75.4837 58.1801C75.6216 58.0949 75.7349 57.7779 75.7354 57.4757C75.7359 57.1735 75.9616 56.5568 76.237 56.1052C76.5123 55.6536 76.7376 55.2304 76.7376 55.1648C76.7376 55.0991 76.634 55.0454 76.5073 55.0454C76.3806 55.0454 76.0421 55.4255 75.755 55.8901C75.4678 56.3546 75.2329 57.0948 75.2329 57.5349C75.2329 58.0045 75.3365 58.2711 75.4837 58.1801ZM106.151 55.695C105.615 55.753 104.799 55.6256 104.28 55.4026C103.773 55.1852 103.292 54.8332 103.21 54.6203C103.09 54.3057 103.192 54.2668 103.755 54.4125C104.136 54.5111 104.989 54.6486 105.649 54.7181C106.78 54.837 106.901 54.79 107.734 53.9073C108.37 53.2331 108.694 53.0466 108.89 53.2426C109.086 53.4386 109.045 53.6935 108.745 54.1513C108.516 54.5013 108.052 54.9687 107.715 55.1899C107.377 55.4111 106.673 55.6384 106.151 55.695ZM198.736 54.5439C198.903 54.5439 199.236 54.3263 199.476 54.0604C199.761 53.746 199.84 53.4462 199.703 53.2036C199.587 52.9984 198.717 51.968 197.769 50.9139L196.045 48.9974L195.449 49.5574C195.122 49.8653 194.853 50.205 194.853 50.3121C194.853 50.4192 195.659 51.4152 196.644 52.5253C197.628 53.6355 198.57 54.5439 198.736 54.5439ZM7.21941 53.5408C6.46114 53.5408 6.06006 53.37 5.49779 52.8077C4.92528 52.2352 4.76475 51.8489 4.76475 51.0435C4.76475 50.4763 4.93953 49.7455 5.15314 49.4195C5.36676 49.0935 5.8727 48.6896 6.27746 48.5219C6.69185 48.3503 7.38365 48.2865 7.86085 48.3761C8.32696 48.4635 8.88523 48.7305 9.10146 48.9695C9.31768 49.2084 9.61869 49.7303 9.77035 50.1292C9.97097 50.6568 9.97078 51.0827 9.76965 51.6922C9.6176 52.1529 9.20402 52.7573 8.85059 53.0353C8.45316 53.3479 7.83082 53.5408 7.21941 53.5408ZM36.1722 53.29C35.7779 53.29 34.8413 52.9178 34.0908 52.463C33.3404 52.0081 32.2749 51.3449 31.7232 50.9893C31.1715 50.6336 28.4856 48.9618 25.7546 47.2742C23.0236 45.5866 20.6068 43.9274 20.3838 43.5872C20.1609 43.247 19.9785 42.4944 19.9785 41.9149C19.9785 41.3192 20.1764 40.5591 20.4337 40.1664C20.6841 39.7843 21.2051 39.3081 21.5916 39.1083C21.978 38.9085 22.7799 38.745 23.3735 38.745C24.317 38.745 25.0685 39.1274 29.3419 41.7825C32.0309 43.4531 34.626 45.0764 35.1087 45.3897C35.5914 45.703 36.6299 46.3626 37.4164 46.8553C38.2322 47.3665 39.0248 48.0965 39.262 48.5552C39.5373 49.0876 39.6331 49.6926 39.5454 50.3461C39.4726 50.889 39.1499 51.6148 38.8282 51.9592C38.5066 52.3036 37.9387 52.7439 37.5662 52.9377C37.1938 53.1314 36.5665 53.29 36.1722 53.29ZM202.334 50.688L202.956 50.0665L201.936 48.857C201.375 48.1918 200.514 47.261 200.022 46.7886C199.148 45.9493 199.116 45.9402 198.62 46.3887C198.342 46.641 198.113 46.999 198.113 47.1841C198.113 47.3692 198.923 48.3731 199.913 49.4151L201.713 51.3095L202.334 50.688ZM106.528 50.482C105.591 50.5425 105.242 50.4471 104.806 50.011C104.287 49.4927 104.268 49.3252 104.435 46.8004C104.532 45.3354 104.776 43.1867 104.977 42.0256C105.179 40.8646 105.311 39.6796 105.272 39.3925C105.219 39.0062 105.358 38.8482 105.803 38.7852C106.399 38.7011 106.404 38.7194 106.252 40.2898C106.167 41.1642 105.969 43.0646 105.812 44.5128C105.656 45.9611 105.512 47.5795 105.493 48.1093C105.468 48.8045 105.596 49.1729 105.952 49.4331C106.263 49.6605 106.71 49.7354 107.163 49.6359C107.768 49.5031 107.866 49.5512 107.792 49.9422C107.724 50.301 107.438 50.4232 106.528 50.482ZM92.7317 50.029L93.5538 50.0299L93.484 46.5817L93.4142 43.1335L92.3694 43.1536C91.7948 43.1647 91.0236 43.371 90.6557 43.612C90.2879 43.8531 89.8154 44.4607 89.6058 44.9622C89.378 45.5075 89.2765 46.2597 89.3534 46.8331C89.4242 47.3605 89.6676 48.0752 89.8944 48.4214C90.1212 48.7675 90.6674 49.2706 91.1082 49.5394C91.5489 49.8081 92.2795 50.0284 92.7317 50.029ZM118.805 50.029C119.185 50.0284 119.863 49.8038 120.312 49.5297C120.762 49.2556 121.354 48.6636 121.628 48.2141C121.937 47.7073 122.127 46.9514 122.127 46.2248C122.128 45.3208 121.976 44.8715 121.461 44.2597C121.094 43.8235 120.51 43.3587 120.163 43.227C119.817 43.0952 119.214 43.0575 118.824 43.1431L118.116 43.2988V46.6643V50.0299L118.805 50.029ZM164.555 47.7606C164.787 47.7674 165.21 47.4452 165.495 47.0446C165.781 46.644 166.014 45.9884 166.014 45.5878C166.014 45.1872 165.869 44.6618 165.693 44.4202C165.516 44.1785 165.032 43.9712 164.616 43.9594C164.201 43.9476 163.621 44.0664 163.328 44.2234C163.034 44.3805 162.661 44.9124 162.498 45.4054C162.336 45.8985 162.265 46.3643 162.341 46.4405C162.417 46.5168 162.852 46.8423 163.306 47.1638C163.761 47.4853 164.323 47.7538 164.555 47.7606ZM204.589 47.765C204.683 47.7607 204.966 47.4731 205.219 47.1259C205.638 46.55 205.644 46.4463 205.291 45.9426C205.078 45.639 204.233 44.6577 203.414 43.762C201.932 42.1413 201.922 42.1357 201.398 42.6097C201.109 42.8716 200.872 43.2095 200.873 43.3605C200.874 43.5115 201.672 44.5661 202.647 45.704C203.622 46.8419 204.496 47.7694 204.589 47.765ZM100.908 47.0206C100.6 47.0206 100.113 46.7232 99.8272 46.3598C99.5414 45.9964 99.3102 45.6296 99.3135 45.5448C99.3168 45.46 99.4177 44.9674 99.5378 44.4501C99.6716 43.8742 99.6646 43.5097 99.5199 43.5097C99.3899 43.5097 99.0068 43.8083 98.6686 44.1733C98.1174 44.768 98.0536 44.7859 98.0536 44.3466C98.0536 44.077 98.1947 43.682 98.3671 43.4689C98.5395 43.2559 98.9596 42.8958 99.3006 42.6687C99.6416 42.4416 100.294 42.2558 100.751 42.2558C101.207 42.2558 101.972 42.4193 102.45 42.6192C102.935 42.8216 103.32 43.1623 103.32 43.3884C103.32 43.6696 103.177 43.7489 102.855 43.6466C102.435 43.5134 102.401 43.6187 102.507 44.722C102.607 45.7624 102.538 46.0253 102.047 46.4828C101.73 46.7786 101.217 47.0206 100.908 47.0206ZM110.688 46.7698C110.096 46.7698 109.775 46.6156 109.57 46.2317C109.41 45.9333 109.334 45.1512 109.399 44.4763C109.463 43.8067 109.457 43.2589 109.384 43.2589C109.312 43.2589 109.035 43.4561 108.768 43.6971C108.302 44.1196 108.287 44.1129 108.373 43.509C108.434 43.0761 108.755 42.7393 109.412 42.418C110.064 42.0999 110.629 42.0031 111.205 42.1112C111.668 42.198 112.34 42.4999 112.699 42.7822C113.057 43.0644 113.351 43.459 113.351 43.6591C113.351 43.957 113.228 43.9424 112.671 43.5782C112.297 43.3336 112.078 43.2753 112.185 43.4485C112.292 43.6218 112.386 44.2188 112.393 44.7752C112.402 45.4081 112.241 45.971 111.963 46.2784C111.691 46.5779 111.194 46.7698 110.688 46.7698ZM97.7069 41.7543C96.9526 41.7543 96.4925 41.606 96.1819 41.2628C95.8803 40.9295 95.7884 40.5674 95.8963 40.1375C95.9838 39.7889 96.3301 39.3236 96.6659 39.1036C97.0017 38.8836 98.1566 38.3747 99.2324 37.9728C100.308 37.5709 101.654 37.2417 102.223 37.2412C102.835 37.2407 103.385 37.3931 103.568 37.6132C103.746 37.8277 103.81 38.2548 103.719 38.6186C103.631 38.9665 103.099 39.585 102.536 39.993C101.973 40.401 100.899 40.9642 100.149 41.2446C99.4001 41.5249 98.301 41.7543 97.7069 41.7543ZM51.138 41.0019C50.8001 41.0019 50.1341 40.793 49.6579 40.5377C49.1817 40.2823 48.5753 39.7829 48.3102 39.4278C48.0451 39.0728 47.7737 38.2147 47.7071 37.521C47.593 36.3339 47.7512 35.901 50.3936 30.1671C51.9379 26.8162 53.365 23.8206 53.5649 23.5103C53.7649 23.2 54.1359 22.946 54.3893 22.946C54.6965 22.946 55.1188 22.4419 55.6561 21.434L56.462 19.9219L55.9099 19.4749C55.5068 19.1485 55.4049 18.8798 55.532 18.4792C55.634 18.158 55.9122 17.9305 56.2031 17.9305C56.5433 17.9305 56.8461 17.6043 57.1631 16.8962L57.6262 15.8618L56.4045 14.3457C55.7325 13.5118 54.9967 12.2693 54.7693 11.5847C54.5419 10.9 54.3582 9.64968 54.3611 8.80617C54.3645 7.84918 54.5728 6.72707 54.9153 5.82188C55.2662 4.89452 55.9511 3.84527 56.8141 2.91311C57.7369 1.91639 58.6626 1.22477 59.7395 0.727486C61.1085 0.0952718 61.6104 0 63.5718 0C65.4852 0 66.0388 0.099656 67.2081 0.654545C67.9667 1.01454 69.0989 1.76428 69.7241 2.32063C70.3492 2.87698 71.1712 3.94571 71.5506 4.69559C71.93 5.44547 72.3325 6.64165 72.4451 7.35377C72.5577 8.06589 72.5508 9.27984 72.4298 10.0514C72.3088 10.823 71.9397 11.9805 71.6097 12.6235C71.2796 13.2666 70.4838 14.3205 69.8413 14.9656C69.1987 15.6108 68.1511 16.3838 67.5134 16.6836C66.8757 16.9834 65.6151 17.3638 64.7121 17.529C63.1886 17.8078 63.0341 17.8973 62.5687 18.7718C62.103 19.6468 62.0972 19.7365 62.4867 20.0271C62.8737 20.3156 62.8752 20.404 62.507 21.1643C62.16 21.8809 62.0142 21.97 61.3921 21.8455C60.7424 21.7156 60.6264 21.8054 60.1343 22.8183C59.659 23.7965 59.6334 24.0116 59.9272 24.5604C60.2187 25.1052 60.1941 25.3586 59.7373 26.5114C59.4486 27.24 58.2417 30.206 57.0552 33.1025C55.8688 35.999 54.6491 38.7372 54.3448 39.1875C54.0405 39.6378 53.3327 40.2303 52.772 40.5041C52.2112 40.7779 51.4759 41.0019 51.138 41.0019ZM114.412 39.8375C114.306 39.9029 113.775 39.625 113.232 39.2198C112.688 38.8146 111.812 38.3537 111.284 38.1956C110.482 37.9552 110.175 37.9791 109.416 38.341C108.684 38.6904 108.468 38.7107 108.3 38.446C108.186 38.2656 108.091 38.0334 108.089 37.9299C108.086 37.8265 108.31 37.5162 108.586 37.2403C108.933 36.8932 109.422 36.7387 110.173 36.7387C110.955 36.7387 111.569 36.9447 112.368 37.4747C112.977 37.8795 113.73 38.4482 114.041 38.7384C114.351 39.0286 114.605 39.3678 114.605 39.4923C114.605 39.6167 114.518 39.772 114.412 39.8375ZM51.491 38.2434C51.6312 38.2434 51.9522 38.0566 52.2045 37.8284C52.4567 37.6001 52.6631 37.2077 52.6631 36.9564C52.6631 36.7051 52.3885 36.3196 52.0529 36.0998C51.5783 35.7888 51.3277 35.7616 50.9244 35.9774C50.6393 36.13 50.4061 36.4959 50.4061 36.7905C50.4061 37.0851 50.5928 37.5326 50.8211 37.7848C51.0494 38.037 51.3508 38.2434 51.491 38.2434ZM121.6 37.9926C121.723 37.9926 121.892 37.8141 121.976 37.596C122.06 37.3778 122.128 36.668 122.128 36.0186C122.128 35.3692 121.955 34.1741 121.744 33.3628C121.533 32.5515 120.961 31.2317 120.474 30.43C119.987 29.6283 119.116 28.5884 118.539 28.1192C117.961 27.65 117.039 27.0277 116.489 26.7362C115.94 26.4446 115.234 26.2061 114.922 26.2061C114.61 26.2061 114.354 26.3037 114.354 26.4228C114.354 26.542 114.889 26.8438 115.543 27.0934C116.238 27.3589 117.259 28.0758 118.003 28.8203C118.703 29.5204 119.589 30.6276 119.971 31.2809C120.354 31.9341 120.825 33.0626 121.018 33.7886C121.212 34.5147 121.371 35.7576 121.373 36.5507C121.374 37.3437 121.477 37.9926 121.6 37.9926ZM139.032 37.4856C138.435 37.4888 137.55 37.2497 136.914 36.9135C136.205 36.5385 135.565 35.9182 135.09 35.1453C134.687 34.4905 134.418 33.8952 134.49 33.8225C134.563 33.7498 136.353 34.0433 138.469 34.4748C140.585 34.9063 142.579 35.3146 142.901 35.3822L143.486 35.505L142.856 36.0009C142.509 36.2736 141.738 36.718 141.142 36.9884C140.546 37.2588 139.597 37.4825 139.032 37.4856ZM97.0361 35.2341C97.1661 35.2341 98.4795 34.8387 99.9546 34.3555C101.43 33.8723 103.52 33.0061 104.6 32.4307C105.68 31.8553 107.136 30.8843 107.834 30.2729C108.533 29.6615 109.327 28.7266 109.598 28.1953C109.869 27.6639 110.091 27.1119 110.091 26.9685C110.091 26.825 109.988 26.7077 109.863 26.7077C109.738 26.7077 109.33 27.1873 108.958 27.7735C108.585 28.3597 107.785 29.2343 107.179 29.717C106.573 30.1998 105.147 31.0708 104.009 31.6526C102.871 32.2344 101.038 33.0091 99.9344 33.374C98.831 33.739 97.6743 34.1965 97.364 34.3908C97.0536 34.5851 96.7997 34.8543 96.7997 34.9891C96.7997 35.1238 96.9061 35.2341 97.0361 35.2341ZM142.943 34.4518C142.46 34.4374 141.501 34.3208 140.811 34.1926C140.121 34.0644 138.344 33.6722 136.861 33.321L134.165 32.6826V31.8098C134.165 31.0945 134.245 30.9614 134.604 31.0718C134.846 31.1458 136.567 31.5356 138.429 31.9378C140.291 32.3401 142.322 32.7515 142.943 32.8521C143.563 32.9527 144.145 33.0784 144.235 33.1316C144.326 33.1847 144.269 33.5094 144.11 33.853C143.878 34.3543 143.647 34.4727 142.943 34.4518ZM54.3558 33.9709C54.5282 33.976 54.6693 33.8909 54.6693 33.7817C54.6693 33.6725 54.0461 33.2775 53.2844 32.904C52.5228 32.5304 51.7893 32.2248 51.6544 32.2248C51.5195 32.2248 51.4092 32.3188 51.4092 32.4338C51.4092 32.5488 52.0016 32.9395 52.7258 33.3022C53.4499 33.6648 54.1834 33.9657 54.3558 33.9709ZM217.045 33.8365C217.595 33.7637 218.541 33.4569 219.146 33.1546C219.751 32.8524 220.609 32.1819 221.052 31.6645C221.494 31.1472 221.988 30.2868 222.148 29.7525C222.308 29.2182 222.436 28.2864 222.433 27.6817C222.43 27.077 222.197 26.0745 221.916 25.4538C221.635 24.8331 221.158 24.0565 220.856 23.7279C220.554 23.3993 219.743 22.8644 219.053 22.5391C218.206 22.1394 217.353 21.9488 216.42 21.9509C215.624 21.9527 214.613 22.1484 214.028 22.414C213.471 22.6671 212.56 23.3914 212.003 24.0237C211.447 24.656 210.859 25.6163 210.696 26.1577C210.534 26.6991 210.401 27.4682 210.401 27.8669C210.401 28.2656 210.512 28.9762 210.646 29.4461C210.781 29.9159 211.192 30.7338 211.559 31.2636C211.926 31.7935 212.614 32.4665 213.088 32.7594C213.562 33.0522 214.421 33.4441 214.997 33.6303C215.573 33.8165 216.494 33.9093 217.045 33.8365ZM86.6894 32.3502C86.8195 32.2122 87.1139 31.4764 87.3436 30.7149C87.5732 29.9534 88.089 28.8134 88.4897 28.1817C88.8903 27.5499 89.8237 26.4516 90.5639 25.741C91.304 25.0304 92.6431 24.0672 93.5396 23.6005C94.4361 23.1338 95.8066 22.5702 96.5852 22.3481C97.3637 22.126 99.0184 21.839 100.262 21.7103C101.583 21.5737 103.473 21.5654 104.805 21.6904C106.06 21.8081 107.645 22.0896 108.326 22.3161C109.088 22.5691 109.86 23.0633 110.33 23.598C110.942 24.295 111.094 24.3734 111.094 23.9921C111.094 23.7302 110.8 23.2222 110.441 22.8632C110.082 22.5042 109.19 21.9866 108.459 21.7131C107.728 21.4395 106.187 21.0902 105.035 20.9369C103.547 20.7389 102.21 20.7329 100.424 20.9162C99.0403 21.0582 97.1229 21.4147 96.1629 21.7085C95.2028 22.0023 93.7403 22.5985 92.9127 23.0332C92.0852 23.468 90.7275 24.5023 89.8957 25.3315C88.9347 26.2895 88.0875 27.4524 87.5723 28.5207C87.1262 29.4455 86.6919 30.7419 86.6071 31.4016C86.5099 32.1571 86.5404 32.5081 86.6894 32.3502ZM144.36 32.1975C144.063 32.1825 142.24 31.8594 140.309 31.4794C138.378 31.0995 136.404 30.682 135.921 30.5515C135.06 30.3188 135.037 30.2795 134.732 28.4509C134.561 27.426 134.189 25.9092 133.905 25.0802C133.62 24.2512 133.325 22.8395 133.249 21.9429C133.137 20.6297 133.22 20.0244 133.672 18.8286C133.981 18.0122 134.684 16.8555 135.234 16.2581C135.793 15.6526 136.968 14.8113 137.891 14.3569C139.366 13.6307 139.779 13.5419 141.683 13.5419C143.533 13.5419 144.019 13.6396 145.298 14.2677C146.111 14.6668 147.183 15.4037 147.681 15.9052C148.178 16.4067 148.865 17.3778 149.206 18.0634C149.659 18.9707 149.852 19.8214 149.915 21.1906C149.994 22.8717 149.926 23.2179 149.279 24.4507C148.881 25.2093 147.849 26.9366 146.985 28.2891C146.121 29.6416 145.299 31.0805 145.157 31.4865C144.974 32.0118 144.744 32.2169 144.36 32.1975ZM55.5949 31.723C55.6212 31.7231 55.71 31.6144 55.7922 31.4814C55.8745 31.3484 55.4015 30.968 54.7412 30.6361C54.081 30.3043 53.2869 29.9541 52.9765 29.858C52.6253 29.7492 52.4123 29.7883 52.4123 29.9615C52.4123 30.1146 53.1176 30.5735 53.9796 30.9813C54.8417 31.3892 55.5685 31.7229 55.5949 31.723ZM142.005 30.6566C142.173 30.6004 142.524 30.1899 142.784 29.7444C143.149 29.1197 143.206 28.7574 143.035 28.1606C142.913 27.7351 142.622 27.2663 142.388 27.1189C142.155 26.9714 141.897 26.9175 141.815 26.999C141.734 27.0805 141.852 27.5344 142.078 28.0078C142.453 28.7952 142.454 28.9488 142.093 29.8136C141.813 30.4834 141.787 30.729 142.005 30.6566ZM140.753 29.9467C141.189 29.4088 141.223 29.1029 141.071 27.1503C140.938 25.4573 140.993 24.6346 141.312 23.5389C141.641 22.4058 141.66 22.0801 141.405 21.9226C141.229 21.814 141.007 21.7739 140.911 21.8333C140.815 21.8928 140.596 22.5247 140.425 23.2376C140.222 24.0845 140.168 25.3668 140.269 26.9373C140.354 28.2593 140.321 29.5047 140.195 29.705C140.069 29.9053 140.033 30.1776 140.115 30.31C140.197 30.4424 140.484 30.2789 140.753 29.9467ZM56.6128 29.2038C56.7852 29.2102 56.9263 29.1042 56.9263 28.9683C56.9263 28.8323 56.2377 28.3736 55.3962 27.9488C54.5547 27.524 53.8099 27.2327 53.7411 27.3015C53.6722 27.3703 53.6914 27.5488 53.7837 27.6981C53.8759 27.8473 54.4797 28.2446 55.1254 28.5808C55.771 28.917 56.4404 29.1974 56.6128 29.2038ZM57.7413 26.953C57.8447 26.956 57.9294 26.8479 57.9294 26.7128C57.9294 26.5776 57.3369 26.1273 56.6128 25.712C55.8887 25.2967 55.1457 24.9559 54.9618 24.9546C54.7779 24.9533 54.6713 25.0839 54.725 25.2447C54.7786 25.4055 55.4369 25.8545 56.1878 26.2424C56.9388 26.6303 57.6378 26.9501 57.7413 26.953ZM13.5047 26.1236C13.272 26.3103 12.9934 26.3166 12.6161 26.1437C12.3139 26.0051 12.0022 25.7242 11.9237 25.5195C11.8451 25.3147 12.3548 24.1441 13.0564 22.9181C14.0236 21.2279 14.459 20.6891 14.8576 20.6891C15.1467 20.6891 15.5854 20.872 15.8325 21.0956C16.2289 21.4543 16.2431 21.5946 15.953 22.2868C15.7722 22.7184 15.2236 23.697 14.7339 24.4616C14.2443 25.2262 13.6911 25.9741 13.5047 26.1236ZM142.579 23.9492C142.793 23.9492 143.299 23.778 143.703 23.5687C144.108 23.3595 144.61 22.8573 144.819 22.4527C145.028 22.0481 145.2 21.4746 145.2 21.1783C145.2 20.8819 145.015 20.2507 144.79 19.7755C144.564 19.3003 144.062 18.7472 143.674 18.5464C143.285 18.3456 142.443 18.1813 141.801 18.1813C140.81 18.1813 140.508 18.3088 139.783 19.0339C139.314 19.5029 138.917 20.1518 138.901 20.4759C138.885 20.8 138.894 21.2909 138.921 21.5668C138.948 21.8426 139.183 22.2878 139.445 22.5559C139.706 22.8241 139.99 22.9728 140.077 22.8862C140.163 22.7997 140.107 22.3426 139.951 21.8705C139.76 21.2932 139.747 20.8032 139.91 20.3743C140.043 20.0236 140.41 19.5559 140.726 19.3351C141.041 19.1143 141.64 18.9372 142.058 18.9416C142.476 18.946 142.996 19.087 143.215 19.2551C143.434 19.4231 143.744 19.8071 143.905 20.1083C144.065 20.4096 144.194 20.9174 144.191 21.2368C144.188 21.5562 143.99 22.0583 143.752 22.3524C143.514 22.6466 143.065 23.0174 142.755 23.1763C142.444 23.3352 142.19 23.5741 142.19 23.7072C142.19 23.8403 142.365 23.9492 142.579 23.9492ZM36.6614 22.4445C35.971 22.4445 35.4884 22.2637 35.0199 21.8295C34.509 21.356 34.3564 20.9766 34.3564 20.1802C34.3564 19.3713 34.5162 18.986 35.0894 18.4128C35.5275 17.9747 36.0875 17.6797 36.4811 17.6797C36.8434 17.6797 37.4569 17.8437 37.8444 18.0441C38.2319 18.2445 38.6905 18.7501 38.8634 19.1677C39.0364 19.5853 39.1041 20.221 39.014 20.5804C38.9238 20.9398 38.5776 21.5062 38.2446 21.8391C37.8117 22.2721 37.3608 22.4445 36.6614 22.4445ZM21.6206 20.9239C20.4186 20.9152 19.197 20.8118 18.9058 20.6941C18.6147 20.5765 18.3075 20.3006 18.2232 20.0809C18.1389 19.8613 18.1769 19.4005 18.3075 19.0568C18.5387 18.4488 18.6117 18.4321 21.0411 18.4321C22.9759 18.4321 23.6258 18.5207 23.9312 18.8261C24.148 19.0429 24.3253 19.3889 24.3253 19.595C24.3253 19.8011 24.2085 20.188 24.0657 20.4548C23.8384 20.8794 23.5341 20.9379 21.6206 20.9239ZM13.5622 18.6707C13.3442 18.6639 12.3147 18.342 11.2746 17.9552C10.2345 17.5683 9.12758 17.1149 8.81488 16.9476C8.37879 16.7142 8.26435 16.4632 8.32367 15.8702C8.36621 15.445 8.58778 14.9803 8.81606 14.8374C9.13027 14.6407 9.86067 14.8182 11.8226 15.5678C13.6829 16.2786 14.4395 16.6901 14.5043 17.0264C14.5539 17.2841 14.4515 17.7622 14.2766 18.0889C14.1018 18.4156 13.7803 18.6774 13.5622 18.6707ZM151.831 17.429C151.618 17.429 151.28 17.0376 151.08 16.5593C150.88 16.081 150.717 15.533 150.717 15.3415C150.717 15.1398 151.844 14.4968 153.396 13.8134C154.869 13.1644 156.378 12.5726 156.749 12.4984C157.264 12.3955 157.521 12.5018 157.832 12.9458C158.056 13.2661 158.24 13.7868 158.24 14.103C158.24 14.4825 157.963 14.8463 157.425 15.174C156.977 15.4469 155.622 16.0659 154.414 16.5496C153.206 17.0332 152.044 17.429 151.831 17.429ZM131.281 16.8392C131.144 16.8811 130.354 16.5408 129.526 16.083C128.698 15.6252 127.484 14.9402 126.826 14.5608C126.169 14.1814 125.52 13.6633 125.384 13.4094C125.226 13.1132 125.223 12.7228 125.376 12.3197C125.508 11.9742 125.846 11.5679 126.129 11.4168C126.505 11.2154 126.793 11.2196 127.206 11.4322C127.517 11.5919 128.754 12.2846 129.956 12.9715C131.157 13.6585 132.251 14.3538 132.386 14.5166C132.553 14.7177 132.456 15.1258 132.082 15.7879C131.78 16.3242 131.419 16.7973 131.281 16.8392ZM17.4164 16.1712C17.1337 16.1734 16.7669 16.0397 16.6014 15.8741C16.4071 15.6798 16.3005 14.676 16.3005 13.0404C16.3005 11.4048 16.4071 10.4009 16.6014 10.2066C16.7669 10.0411 17.2045 9.90567 17.5738 9.90567C17.9431 9.90567 18.3826 10.0712 18.5505 10.2735C18.7597 10.5255 18.8285 11.4364 18.7693 13.1669C18.7042 15.069 18.59 15.7511 18.3067 15.9299C18.0998 16.0605 17.6992 16.1691 17.4164 16.1712ZM63.4464 13.8908C63.6533 13.9043 64.225 13.8035 64.7167 13.6669C65.2085 13.5303 66.0864 13.0114 66.6677 12.5139C67.249 12.0163 67.8905 11.2121 68.0933 10.7268C68.2961 10.2415 68.462 9.34588 68.462 8.73656C68.462 8.12724 68.2473 7.21001 67.9848 6.69828C67.7224 6.18655 67.2428 5.52715 66.919 5.23295C66.5953 4.93874 65.9692 4.51556 65.5278 4.29253C65.0864 4.06951 64.191 3.88703 63.5381 3.88703C62.8388 3.88703 61.8968 4.10685 61.2461 4.42187C60.6385 4.71602 59.8184 5.40244 59.4238 5.94723C59.0274 6.49439 58.6302 7.44478 58.5364 8.0705C58.4359 8.74016 58.4892 9.61287 58.6667 10.2052C58.8369 10.7732 59.4302 11.6705 60.0369 12.2772C60.6808 12.9211 61.4978 13.4505 62.0886 13.6067C62.6285 13.7495 63.2396 13.8773 63.4464 13.8908ZM173.485 12.6544C173.169 12.649 172.56 12.4921 172.132 12.3058C171.704 12.1194 171.111 11.6268 170.815 11.2111C170.452 10.7008 170.277 10.0795 170.277 9.29903C170.277 8.34178 170.419 7.98825 171.101 7.24413C171.751 6.5347 172.165 6.31829 173.066 6.21677C173.85 6.12831 174.458 6.21812 175.012 6.50443C175.454 6.73338 176.037 7.28198 176.306 7.72355C176.575 8.16512 176.796 8.84789 176.796 9.24083C176.797 9.63376 176.613 10.3447 176.387 10.8207C176.137 11.3478 175.601 11.8773 175.017 12.1752C174.49 12.4441 173.8 12.6598 173.485 12.6544ZM135.488 12.2771C135.037 12.4114 134.83 12.2827 134.421 11.6136C134.142 11.157 133.388 9.74559 132.744 8.47718C131.803 6.62185 131.633 6.10008 131.875 5.80832C132.04 5.60885 132.527 5.30004 132.957 5.12206C133.686 4.82015 133.774 4.84281 134.265 5.46025C134.555 5.82423 135.328 7.18791 135.984 8.49065C136.639 9.79338 137.175 10.9806 137.175 11.129C137.175 11.2774 136.921 11.5589 136.61 11.7546C136.3 11.9503 135.795 12.1854 135.488 12.2771ZM148.023 12.3965C147.781 12.3871 147.335 12.26 147.032 12.1139C146.73 11.9678 146.418 11.6806 146.34 11.4756C146.261 11.2707 146.442 10.6925 146.741 10.1909C147.04 9.68919 147.901 8.34772 148.655 7.20982C149.409 6.07192 150.13 5.14092 150.258 5.14092C150.386 5.14092 150.824 5.31309 151.231 5.52352C151.718 5.77557 151.971 6.09906 151.971 6.47152C151.971 6.78249 151.473 7.82344 150.866 8.78476C150.258 9.74608 149.47 10.9558 149.113 11.473C148.756 11.9902 148.266 12.4058 148.023 12.3965ZM141.834 10.658C141.395 10.658 140.901 10.5226 140.736 10.3571C140.533 10.1547 140.435 9.01527 140.435 6.8769C140.435 4.4258 140.517 3.6295 140.793 3.40001C140.991 3.23629 141.583 3.13784 142.11 3.18122L143.068 3.26009L143.138 6.61087C143.185 8.86764 143.114 10.0753 142.919 10.3098C142.76 10.5013 142.272 10.658 141.834 10.658ZM85.9344 8.39338C85.4967 8.38919 84.9129 8.25632 84.6371 8.09812C84.3612 7.93992 83.998 7.63301 83.83 7.41611C83.662 7.19921 83.5209 6.53345 83.5165 5.93665C83.5101 5.06566 83.6532 4.70693 84.2416 4.11852C84.7998 3.56031 85.2035 3.38681 85.9343 3.39106C86.4625 3.39413 87.1346 3.59146 87.4289 3.82992C87.7231 4.06822 88.1002 4.52899 88.2669 4.85385C88.4407 5.19256 88.5031 5.80119 88.4131 6.2807C88.321 6.77169 87.9413 7.38195 87.4932 7.75895C87.0173 8.15944 86.4308 8.39814 85.9344 8.39338Z" fill="black"/>
</svg>
